M48
METRIC,LZ,000.000
;FILE_FORMAT=3:3
;TYPE=PLATED
;Layer: PTH_Through
;EasyEDA v6.5.46, 2025-02-01 21:24:59
;3faa27f7c1044bbbb46ecef337df57e6,286660f9466f4c8aba87c6f7285b94de,10
;Gerber Generator version 0.2
;Holesize 1 = 0.301 mm
T01C0.301
;Holesize 2 = 0.501 mm
T02C0.501
%
G05
G90
T01
X008763Y000762
X005588Y-002413
X005715Y-003683
X008763Y-000889
X007366Y-002286
X012827Y-001143
X013208Y001016
X019304Y-003683
X020701Y-001651
X017315Y-000039
X018669Y003683
X019685Y006096
X015240Y005461
X009525Y006604
X006858Y004445
X002032Y006096
X002032Y004572
X002032Y003429
X002032Y-000508
X002032Y-001651
X002032Y-002921
X009398Y-004064
X012827Y-003683
X010160Y001016
X011811Y001016
X011684Y003556
X008322Y-003683
X008509Y003556
X002032Y000254
X004953Y002286
X005201Y003689
X005961Y001008
X013589Y-004318
X006477Y005207
X011938Y006604
X015494Y-000254
X017284Y005011
X009398Y003556
X002159Y001905
X002159Y001143
X001270Y-002667
X001270Y-003429
X014732Y-002921
X026289Y-003556
X015748Y-004318
X000508Y004445
X-000127Y004445
X001016Y003683
X001016Y002942
X000000Y000000
X-000381Y001143
T02
X022225Y006223
X022225Y005080
X022225Y-004064
X022225Y-002921
X022225Y-001778
X022225Y-000635
X022225Y000508
X022225Y001651
X022225Y002794
X022225Y003937
M30
