G04 Layer: TopSilkscreenLayer*
G04 EasyEDA v6.5.46, 2025-02-01 21:24:59*
G04 3faa27f7c1044bbbb46ecef337df57e6,286660f9466f4c8aba87c6f7285b94de,10*
G04 Gerber Generator version 0.2*
G04 Scale: 100 percent, Rotated: No, Reflected: No *
G04 Dimensions in millimeters *
G04 leading zeros omitted , absolute positions ,4 integer and 5 decimal *
%FSLAX45Y45*%
%MOMM*%

%ADD10C,0.4000*%
%ADD11C,0.1524*%
%ADD12C,0.2540*%

%LPD*%
G36*
X1803196Y571804D02*
G01*
X1790496Y559104D01*
X1790496Y533704D01*
X1803196Y521004D01*
X1841296Y546404D01*
G37*
D10*
X38100Y114300D02*
G01*
X38100Y-203200D01*
X38100Y-457200D01*
X38100Y673100D02*
G01*
X38100Y114300D01*
D11*
X1546621Y-318439D02*
G01*
X1618424Y-318439D01*
X1618424Y-418160D01*
X1546621Y-418160D01*
X1501378Y-318439D02*
G01*
X1429575Y-318439D01*
X1429575Y-418160D01*
X1501378Y-418160D01*
X1650060Y165069D02*
G01*
X1650060Y244078D01*
X1550339Y244078D02*
G01*
X1550339Y165069D01*
X1565579Y149829D02*
G01*
X1634820Y149829D01*
X1650060Y368330D02*
G01*
X1650060Y289321D01*
X1550339Y289321D02*
G01*
X1550339Y368330D01*
X1565579Y383570D02*
G01*
X1634820Y383570D01*
X1650060Y444469D02*
G01*
X1650060Y523478D01*
X1550339Y523478D02*
G01*
X1550339Y444469D01*
X1565579Y429229D02*
G01*
X1634820Y429229D01*
X1650060Y647730D02*
G01*
X1650060Y568721D01*
X1550339Y568721D02*
G01*
X1550339Y647730D01*
X1565579Y662970D02*
G01*
X1634820Y662970D01*
X444530Y-115239D02*
G01*
X365521Y-115239D01*
X365521Y-214960D02*
G01*
X444530Y-214960D01*
X459770Y-199720D02*
G01*
X459770Y-130479D01*
X241269Y-115239D02*
G01*
X320278Y-115239D01*
X320278Y-214960D02*
G01*
X241269Y-214960D01*
X226029Y-199720D02*
G01*
X226029Y-130479D01*
X444530Y11760D02*
G01*
X365521Y11760D01*
X365521Y-87960D02*
G01*
X444530Y-87960D01*
X459770Y-72720D02*
G01*
X459770Y-3479D01*
X241269Y11760D02*
G01*
X320278Y11760D01*
X320278Y-87960D02*
G01*
X241269Y-87960D01*
X226029Y-72720D02*
G01*
X226029Y-3479D01*
X1244630Y646760D02*
G01*
X1165621Y646760D01*
X1165621Y547039D02*
G01*
X1244630Y547039D01*
X1259870Y562279D02*
G01*
X1259870Y631520D01*
X1041369Y646760D02*
G01*
X1120378Y646760D01*
X1120378Y547039D02*
G01*
X1041369Y547039D01*
X1026129Y562279D02*
G01*
X1026129Y631520D01*
X787369Y547039D02*
G01*
X866378Y547039D01*
X866378Y646760D02*
G01*
X787369Y646760D01*
X772129Y631520D02*
G01*
X772129Y562279D01*
X990630Y547039D02*
G01*
X911621Y547039D01*
X911621Y646760D02*
G01*
X990630Y646760D01*
X1005870Y631520D02*
G01*
X1005870Y562279D01*
X1193830Y-356539D02*
G01*
X1114821Y-356539D01*
X1114821Y-456260D02*
G01*
X1193830Y-456260D01*
X1209070Y-441020D02*
G01*
X1209070Y-371779D01*
X990569Y-356539D02*
G01*
X1069578Y-356539D01*
X1069578Y-456260D02*
G01*
X990569Y-456260D01*
X975329Y-441020D02*
G01*
X975329Y-371779D01*
X444530Y392760D02*
G01*
X365521Y392760D01*
X365521Y293039D02*
G01*
X444530Y293039D01*
X459770Y308279D02*
G01*
X459770Y377520D01*
X241269Y392760D02*
G01*
X320278Y392760D01*
X320278Y293039D02*
G01*
X241269Y293039D01*
X226029Y308279D02*
G01*
X226029Y377520D01*
X444530Y519760D02*
G01*
X365521Y519760D01*
X365521Y420039D02*
G01*
X444530Y420039D01*
X459770Y435279D02*
G01*
X459770Y504520D01*
X241269Y519760D02*
G01*
X320278Y519760D01*
X320278Y420039D02*
G01*
X241269Y420039D01*
X226029Y435279D02*
G01*
X226029Y504520D01*
X444530Y-242239D02*
G01*
X365521Y-242239D01*
X365521Y-341960D02*
G01*
X444530Y-341960D01*
X459770Y-326720D02*
G01*
X459770Y-257479D01*
X241269Y-242239D02*
G01*
X320278Y-242239D01*
X320278Y-341960D02*
G01*
X241269Y-341960D01*
X226029Y-326720D02*
G01*
X226029Y-257479D01*
X1677339Y368330D02*
G01*
X1677339Y289321D01*
X1777060Y289321D02*
G01*
X1777060Y368330D01*
X1761820Y383570D02*
G01*
X1692579Y383570D01*
X1677339Y165069D02*
G01*
X1677339Y244078D01*
X1777060Y244078D02*
G01*
X1777060Y165069D01*
X1761820Y149829D02*
G01*
X1692579Y149829D01*
X241269Y547039D02*
G01*
X320278Y547039D01*
X320278Y646760D02*
G01*
X241269Y646760D01*
X226029Y631520D02*
G01*
X226029Y562279D01*
X444530Y547039D02*
G01*
X365521Y547039D01*
X365521Y646760D02*
G01*
X444530Y646760D01*
X459770Y631520D02*
G01*
X459770Y562279D01*
X1689069Y-418160D02*
G01*
X1768078Y-418160D01*
X1768078Y-318439D02*
G01*
X1689069Y-318439D01*
X1673829Y-333679D02*
G01*
X1673829Y-402920D01*
X1892330Y-418160D02*
G01*
X1813321Y-418160D01*
X1813321Y-318439D02*
G01*
X1892330Y-318439D01*
X1907570Y-333679D02*
G01*
X1907570Y-402920D01*
X2032030Y341960D02*
G01*
X1953021Y341960D01*
X1953021Y242239D02*
G01*
X2032030Y242239D01*
X2047270Y257479D02*
G01*
X2047270Y326720D01*
X1828769Y341960D02*
G01*
X1907778Y341960D01*
X1907778Y242239D02*
G01*
X1828769Y242239D01*
X1813529Y257479D02*
G01*
X1813529Y326720D01*
D12*
X1727200Y444500D02*
G01*
X1879600Y444500D01*
X1879600Y647700D02*
G01*
X1727200Y647700D01*
D11*
X612378Y547039D02*
G01*
X540575Y547039D01*
X540575Y646760D01*
X612378Y646760D01*
X657621Y547039D02*
G01*
X729424Y547039D01*
X729424Y646760D01*
X657621Y646760D01*
X365521Y265760D02*
G01*
X437324Y265760D01*
X437324Y166039D01*
X365521Y166039D01*
X320278Y265760D02*
G01*
X248475Y265760D01*
X248475Y166039D01*
X320278Y166039D01*
X365521Y138760D02*
G01*
X437324Y138760D01*
X437324Y39039D01*
X365521Y39039D01*
X320278Y138760D02*
G01*
X248475Y138760D01*
X248475Y39039D01*
X320278Y39039D01*
X1953021Y214960D02*
G01*
X2024824Y214960D01*
X2024824Y115239D01*
X1953021Y115239D01*
X1907778Y214960D02*
G01*
X1835975Y214960D01*
X1835975Y115239D01*
X1907778Y115239D01*
D12*
X742198Y-222498D02*
G01*
X751883Y-222498D01*
X777791Y-248406D01*
X799081Y-248406D02*
G01*
X742198Y-191518D01*
X799081Y-248406D02*
G01*
X742198Y-248406D01*
X1442191Y-191518D02*
G01*
X1442191Y-238404D01*
X1442191Y-248406D01*
X1385308Y-248406D01*
X1385308Y451591D02*
G01*
X1442191Y451591D01*
X1442191Y394708D01*
X742198Y394708D02*
G01*
X742198Y451591D01*
X799081Y451591D01*
X742198Y-248406D02*
G01*
X742198Y-191518D01*
D11*
X1638640Y-256748D02*
G01*
X1638640Y78973D01*
X2044359Y78973D01*
X2044359Y-256748D01*
X1638640Y-256748D01*
X1615780Y-113888D02*
G01*
X1615780Y-279608D01*
X1801500Y-279608D01*
X2479278Y-405460D02*
G01*
X2407475Y-405460D01*
X2407475Y-305739D01*
X2479278Y-305739D01*
X2524521Y-405460D02*
G01*
X2596324Y-405460D01*
X2596324Y-305739D01*
X2524521Y-305739D01*
G75*
G01*
X1550340Y165070D02*
G03*
X1565580Y149830I15240J0D01*
G75*
G01*
X1634820Y149830D02*
G03*
X1650060Y165070I0J15240D01*
G75*
G01*
X1550340Y368330D02*
G02*
X1565580Y383570I15240J0D01*
G75*
G01*
X1634820Y383570D02*
G02*
X1650060Y368330I0J-15240D01*
G75*
G01*
X1550340Y444470D02*
G03*
X1565580Y429230I15240J0D01*
G75*
G01*
X1634820Y429230D02*
G03*
X1650060Y444470I0J15240D01*
G75*
G01*
X1550340Y647730D02*
G02*
X1565580Y662970I15240J0D01*
G75*
G01*
X1634820Y662970D02*
G02*
X1650060Y647730I0J-15240D01*
G75*
G01*
X444530Y-214960D02*
G03*
X459770Y-199720I0J15240D01*
G75*
G01*
X459770Y-130480D02*
G03*
X444530Y-115240I-15240J0D01*
G75*
G01*
X241270Y-214960D02*
G02*
X226030Y-199720I0J15240D01*
G75*
G01*
X226030Y-130480D02*
G02*
X241270Y-115240I15240J0D01*
G75*
G01*
X444530Y-87960D02*
G03*
X459770Y-72720I0J15240D01*
G75*
G01*
X459770Y-3480D02*
G03*
X444530Y11760I-15240J0D01*
G75*
G01*
X241270Y-87960D02*
G02*
X226030Y-72720I0J15240D01*
G75*
G01*
X226030Y-3480D02*
G02*
X241270Y11760I15240J0D01*
G75*
G01*
X1244630Y547040D02*
G03*
X1259870Y562280I0J15240D01*
G75*
G01*
X1259870Y631520D02*
G03*
X1244630Y646760I-15240J0D01*
G75*
G01*
X1041370Y547040D02*
G02*
X1026130Y562280I0J15240D01*
G75*
G01*
X1026130Y631520D02*
G02*
X1041370Y646760I15240J0D01*
G75*
G01*
X787370Y646760D02*
G03*
X772130Y631520I0J-15240D01*
G75*
G01*
X772130Y562280D02*
G03*
X787370Y547040I15240J0D01*
G75*
G01*
X990630Y646760D02*
G02*
X1005870Y631520I0J-15240D01*
G75*
G01*
X1005870Y562280D02*
G02*
X990630Y547040I-15240J0D01*
G75*
G01*
X1193830Y-456260D02*
G03*
X1209070Y-441020I0J15240D01*
G75*
G01*
X1209070Y-371780D02*
G03*
X1193830Y-356540I-15240J0D01*
G75*
G01*
X990570Y-456260D02*
G02*
X975330Y-441020I0J15240D01*
G75*
G01*
X975330Y-371780D02*
G02*
X990570Y-356540I15240J0D01*
G75*
G01*
X444530Y293040D02*
G03*
X459770Y308280I0J15240D01*
G75*
G01*
X459770Y377520D02*
G03*
X444530Y392760I-15240J0D01*
G75*
G01*
X241270Y293040D02*
G02*
X226030Y308280I0J15240D01*
G75*
G01*
X226030Y377520D02*
G02*
X241270Y392760I15240J0D01*
G75*
G01*
X444530Y420040D02*
G03*
X459770Y435280I0J15240D01*
G75*
G01*
X459770Y504520D02*
G03*
X444530Y519760I-15240J0D01*
G75*
G01*
X241270Y420040D02*
G02*
X226030Y435280I0J15240D01*
G75*
G01*
X226030Y504520D02*
G02*
X241270Y519760I15240J0D01*
G75*
G01*
X444530Y-341960D02*
G03*
X459770Y-326720I0J15240D01*
G75*
G01*
X459770Y-257480D02*
G03*
X444530Y-242240I-15240J0D01*
G75*
G01*
X241270Y-341960D02*
G02*
X226030Y-326720I0J15240D01*
G75*
G01*
X226030Y-257480D02*
G02*
X241270Y-242240I15240J0D01*
G75*
G01*
X1777060Y368330D02*
G03*
X1761820Y383570I-15240J0D01*
G75*
G01*
X1692580Y383570D02*
G03*
X1677340Y368330I0J-15240D01*
G75*
G01*
X1777060Y165070D02*
G02*
X1761820Y149830I-15240J0D01*
G75*
G01*
X1692580Y149830D02*
G02*
X1677340Y165070I0J15240D01*
G75*
G01*
X241270Y646760D02*
G03*
X226030Y631520I0J-15240D01*
G75*
G01*
X226030Y562280D02*
G03*
X241270Y547040I15240J0D01*
G75*
G01*
X444530Y646760D02*
G02*
X459770Y631520I0J-15240D01*
G75*
G01*
X459770Y562280D02*
G02*
X444530Y547040I-15240J0D01*
G75*
G01*
X1689070Y-318440D02*
G03*
X1673830Y-333680I0J-15240D01*
G75*
G01*
X1673830Y-402920D02*
G03*
X1689070Y-418160I15240J0D01*
G75*
G01*
X1892330Y-318440D02*
G02*
X1907570Y-333680I0J-15240D01*
G75*
G01*
X1907570Y-402920D02*
G02*
X1892330Y-418160I-15240J0D01*
G75*
G01*
X2032030Y242240D02*
G03*
X2047270Y257480I0J15240D01*
G75*
G01*
X2047270Y326720D02*
G03*
X2032030Y341960I-15240J0D01*
G75*
G01*
X1828770Y242240D02*
G02*
X1813530Y257480I0J15240D01*
G75*
G01*
X1813530Y326720D02*
G02*
X1828770Y341960I15240J0D01*
D12*
G75*
G01
X1966112Y546100D02*
G03X1966112Y546100I-12700J0D01*
G75*
G01
X734898Y-298399D02*
G03X734898Y-298399I-12700J0D01*
M02*
