G04 Layer: InnerLayer2*
G04 EasyEDA v6.5.46, 2025-02-01 21:24:59*
G04 3faa27f7c1044bbbb46ecef337df57e6,286660f9466f4c8aba87c6f7285b94de,10*
G04 Gerber Generator version 0.2*
G04 Scale: 100 percent, Rotated: No, Reflected: No *
G04 Dimensions in millimeters *
G04 leading zeros omitted , absolute positions ,4 integer and 5 decimal *
%FSLAX45Y45*%
%MOMM*%

%ADD10C,0.8000*%
%ADD11C,0.6000*%

%LPD*%
G36*
X-1382776Y-508000D02*
G01*
X-1382776Y711200D01*
X2743200Y711200D01*
X2743200Y-508000D01*
G37*

%LPC*%
G36*
X1575567Y-477245D02*
G01*
X1578632Y-477090D01*
X1581683Y-476730D01*
X1584700Y-476161D01*
X1587672Y-475391D01*
X1590586Y-474423D01*
X1593428Y-473260D01*
X1596184Y-471909D01*
X1598843Y-470372D01*
X1601391Y-468663D01*
X1603819Y-466783D01*
X1606115Y-464743D01*
X1608269Y-462554D01*
X1610268Y-460225D01*
X1612107Y-457766D01*
X1613773Y-455188D01*
X1615264Y-452503D01*
X1616570Y-449724D01*
X1617685Y-446864D01*
X1618604Y-443933D01*
X1619323Y-440949D01*
X1619839Y-437923D01*
X1620149Y-434868D01*
X1620253Y-431800D01*
X1620149Y-428731D01*
X1619839Y-425676D01*
X1619323Y-422650D01*
X1618604Y-419666D01*
X1617685Y-416735D01*
X1616570Y-413875D01*
X1615264Y-411096D01*
X1613773Y-408411D01*
X1612107Y-405833D01*
X1610268Y-403374D01*
X1608269Y-401045D01*
X1606115Y-398856D01*
X1603819Y-396816D01*
X1601391Y-394936D01*
X1598843Y-393227D01*
X1596184Y-391690D01*
X1593428Y-390339D01*
X1590586Y-389176D01*
X1587672Y-388208D01*
X1584700Y-387438D01*
X1581683Y-386869D01*
X1578632Y-386509D01*
X1575567Y-386354D01*
X1572498Y-386405D01*
X1569438Y-386664D01*
X1566402Y-387129D01*
X1563408Y-387797D01*
X1560461Y-388668D01*
X1557583Y-389732D01*
X1554782Y-390992D01*
X1552072Y-392435D01*
X1549468Y-394060D01*
X1546976Y-395856D01*
X1544614Y-397817D01*
X1542389Y-399933D01*
X1540311Y-402193D01*
X1538391Y-404588D01*
X1536639Y-407108D01*
X1535059Y-409742D01*
X1533659Y-412475D01*
X1532448Y-415295D01*
X1531432Y-418193D01*
X1530611Y-421152D01*
X1529994Y-424159D01*
X1529580Y-427202D01*
X1529372Y-430265D01*
X1529372Y-433334D01*
X1529580Y-436397D01*
X1529994Y-439440D01*
X1530611Y-442447D01*
X1531432Y-445406D01*
X1532448Y-448304D01*
X1533659Y-451124D01*
X1535059Y-453857D01*
X1536639Y-456491D01*
X1538391Y-459011D01*
X1540311Y-461406D01*
X1542389Y-463666D01*
X1544614Y-465782D01*
X1546976Y-467743D01*
X1549468Y-469539D01*
X1552072Y-471164D01*
X1554782Y-472607D01*
X1557583Y-473867D01*
X1560461Y-474931D01*
X1563408Y-475802D01*
X1566402Y-476470D01*
X1569438Y-476935D01*
X1572498Y-477194D01*
G37*
G36*
X2221654Y-461845D02*
G01*
X2225034Y-461794D01*
X2228408Y-461538D01*
X2231758Y-461076D01*
X2235075Y-460408D01*
X2238344Y-459541D01*
X2241555Y-458477D01*
X2244694Y-457217D01*
X2247750Y-455769D01*
X2250714Y-454139D01*
X2253571Y-452330D01*
X2256312Y-450352D01*
X2258931Y-448208D01*
X2261410Y-445909D01*
X2263747Y-443463D01*
X2265931Y-440880D01*
X2267950Y-438167D01*
X2269804Y-435338D01*
X2271478Y-432399D01*
X2272974Y-429366D01*
X2274280Y-426247D01*
X2275392Y-423052D01*
X2276309Y-419795D01*
X2277026Y-416491D01*
X2277541Y-413148D01*
X2277849Y-409780D01*
X2277953Y-406400D01*
X2277849Y-403019D01*
X2277541Y-399651D01*
X2277026Y-396308D01*
X2276309Y-393004D01*
X2275392Y-389747D01*
X2274280Y-386552D01*
X2272974Y-383433D01*
X2271478Y-380400D01*
X2269804Y-377461D01*
X2267950Y-374632D01*
X2265931Y-371919D01*
X2263747Y-369336D01*
X2261410Y-366890D01*
X2258931Y-364591D01*
X2256312Y-362447D01*
X2253571Y-360469D01*
X2250714Y-358660D01*
X2247750Y-357030D01*
X2244694Y-355582D01*
X2241555Y-354322D01*
X2238344Y-353258D01*
X2235075Y-352391D01*
X2231758Y-351723D01*
X2228408Y-351261D01*
X2225034Y-351005D01*
X2221654Y-350954D01*
X2218275Y-351106D01*
X2214913Y-351467D01*
X2211577Y-352033D01*
X2208283Y-352800D01*
X2205042Y-353766D01*
X2201865Y-354929D01*
X2198766Y-356283D01*
X2195756Y-357822D01*
X2192842Y-359542D01*
X2190041Y-361436D01*
X2187361Y-363499D01*
X2184811Y-365721D01*
X2182401Y-368096D01*
X2180140Y-370611D01*
X2178037Y-373260D01*
X2176101Y-376031D01*
X2174336Y-378917D01*
X2172749Y-381904D01*
X2171349Y-384982D01*
X2170137Y-388142D01*
X2169121Y-391368D01*
X2168306Y-394649D01*
X2167689Y-397974D01*
X2167277Y-401332D01*
X2167072Y-404708D01*
X2167072Y-408091D01*
X2167277Y-411467D01*
X2167689Y-414825D01*
X2168306Y-418150D01*
X2169121Y-421431D01*
X2170137Y-424657D01*
X2171349Y-427817D01*
X2172749Y-430895D01*
X2174336Y-433882D01*
X2176101Y-436768D01*
X2178037Y-439539D01*
X2180140Y-442188D01*
X2182401Y-444703D01*
X2184811Y-447078D01*
X2187361Y-449300D01*
X2190041Y-451363D01*
X2192842Y-453257D01*
X2195756Y-454977D01*
X2198766Y-456516D01*
X2201865Y-457870D01*
X2205042Y-459033D01*
X2208283Y-459999D01*
X2211577Y-460766D01*
X2214913Y-461332D01*
X2218275Y-461693D01*
G37*
G36*
X940567Y-451845D02*
G01*
X943632Y-451690D01*
X946683Y-451330D01*
X949700Y-450761D01*
X952672Y-449991D01*
X955586Y-449023D01*
X958428Y-447860D01*
X961184Y-446509D01*
X963843Y-444972D01*
X966391Y-443263D01*
X968819Y-441383D01*
X971115Y-439343D01*
X973269Y-437154D01*
X975268Y-434825D01*
X977107Y-432366D01*
X978773Y-429788D01*
X980264Y-427103D01*
X981570Y-424324D01*
X982685Y-421464D01*
X983604Y-418533D01*
X984323Y-415549D01*
X984839Y-412523D01*
X985149Y-409468D01*
X985253Y-406400D01*
X985149Y-403331D01*
X984839Y-400276D01*
X984323Y-397250D01*
X983604Y-394266D01*
X982685Y-391335D01*
X981570Y-388475D01*
X980264Y-385696D01*
X978773Y-383011D01*
X977107Y-380433D01*
X975268Y-377974D01*
X973269Y-375645D01*
X971115Y-373456D01*
X968819Y-371416D01*
X966391Y-369536D01*
X963843Y-367827D01*
X961184Y-366290D01*
X958428Y-364939D01*
X955586Y-363776D01*
X952672Y-362808D01*
X949700Y-362038D01*
X946683Y-361469D01*
X943632Y-361109D01*
X940567Y-360954D01*
X937498Y-361005D01*
X934438Y-361264D01*
X931402Y-361729D01*
X928408Y-362397D01*
X925461Y-363268D01*
X922583Y-364332D01*
X919782Y-365592D01*
X917072Y-367035D01*
X914468Y-368660D01*
X911976Y-370456D01*
X909614Y-372417D01*
X907389Y-374533D01*
X905311Y-376793D01*
X903391Y-379188D01*
X901639Y-381708D01*
X900059Y-384342D01*
X898659Y-387075D01*
X897448Y-389895D01*
X896432Y-392793D01*
X895611Y-395752D01*
X894994Y-398759D01*
X894580Y-401802D01*
X894372Y-404865D01*
X894372Y-407934D01*
X894580Y-410997D01*
X894994Y-414040D01*
X895611Y-417047D01*
X896432Y-420006D01*
X897448Y-422904D01*
X898659Y-425724D01*
X900059Y-428457D01*
X901639Y-431091D01*
X903391Y-433611D01*
X905311Y-436006D01*
X907389Y-438266D01*
X909614Y-440382D01*
X911976Y-442343D01*
X914468Y-444139D01*
X917072Y-445764D01*
X919782Y-447207D01*
X922583Y-448467D01*
X925461Y-449531D01*
X928408Y-450402D01*
X931402Y-451070D01*
X934438Y-451535D01*
X937498Y-451794D01*
G37*
G36*
X1283467Y-413745D02*
G01*
X1286532Y-413590D01*
X1289583Y-413230D01*
X1292600Y-412661D01*
X1295572Y-411891D01*
X1298486Y-410923D01*
X1301328Y-409760D01*
X1304084Y-408409D01*
X1306743Y-406872D01*
X1309291Y-405163D01*
X1311719Y-403283D01*
X1314015Y-401243D01*
X1316169Y-399054D01*
X1318168Y-396725D01*
X1320007Y-394266D01*
X1321673Y-391688D01*
X1323164Y-389003D01*
X1324470Y-386224D01*
X1325585Y-383364D01*
X1326504Y-380433D01*
X1327223Y-377449D01*
X1327739Y-374423D01*
X1328049Y-371368D01*
X1328153Y-368300D01*
X1328049Y-365231D01*
X1327739Y-362176D01*
X1327223Y-359150D01*
X1326504Y-356166D01*
X1325585Y-353235D01*
X1324470Y-350375D01*
X1323164Y-347596D01*
X1321673Y-344911D01*
X1320007Y-342333D01*
X1318168Y-339874D01*
X1316169Y-337545D01*
X1314015Y-335356D01*
X1311719Y-333316D01*
X1309291Y-331436D01*
X1306743Y-329727D01*
X1304084Y-328190D01*
X1301328Y-326839D01*
X1298486Y-325676D01*
X1295572Y-324708D01*
X1292600Y-323938D01*
X1289583Y-323369D01*
X1286532Y-323009D01*
X1283467Y-322854D01*
X1280398Y-322905D01*
X1277338Y-323164D01*
X1274302Y-323629D01*
X1271308Y-324297D01*
X1268361Y-325168D01*
X1265483Y-326232D01*
X1262682Y-327492D01*
X1259972Y-328935D01*
X1257368Y-330560D01*
X1254876Y-332356D01*
X1252514Y-334317D01*
X1250289Y-336433D01*
X1248211Y-338693D01*
X1246291Y-341088D01*
X1244539Y-343608D01*
X1242959Y-346242D01*
X1241559Y-348975D01*
X1240348Y-351795D01*
X1239332Y-354693D01*
X1238511Y-357652D01*
X1237894Y-360659D01*
X1237480Y-363702D01*
X1237272Y-366765D01*
X1237272Y-369834D01*
X1237480Y-372897D01*
X1237894Y-375940D01*
X1238511Y-378947D01*
X1239332Y-381906D01*
X1240348Y-384804D01*
X1241559Y-387624D01*
X1242959Y-390357D01*
X1244539Y-392991D01*
X1246291Y-395511D01*
X1248211Y-397906D01*
X1250289Y-400166D01*
X1252514Y-402282D01*
X1254876Y-404243D01*
X1257368Y-406039D01*
X1259972Y-407664D01*
X1262682Y-409107D01*
X1265483Y-410367D01*
X1268361Y-411431D01*
X1271308Y-412302D01*
X1274302Y-412970D01*
X1277338Y-413435D01*
X1280398Y-413694D01*
G37*
G36*
X1931167Y-413745D02*
G01*
X1934232Y-413590D01*
X1937283Y-413230D01*
X1940300Y-412661D01*
X1943272Y-411891D01*
X1946186Y-410923D01*
X1949028Y-409760D01*
X1951784Y-408409D01*
X1954443Y-406872D01*
X1956991Y-405163D01*
X1959419Y-403283D01*
X1961715Y-401243D01*
X1963869Y-399054D01*
X1965868Y-396725D01*
X1967707Y-394266D01*
X1969373Y-391688D01*
X1970864Y-389003D01*
X1972170Y-386224D01*
X1973285Y-383364D01*
X1974204Y-380433D01*
X1974923Y-377449D01*
X1975439Y-374423D01*
X1975749Y-371368D01*
X1975853Y-368300D01*
X1975749Y-365231D01*
X1975439Y-362176D01*
X1974923Y-359150D01*
X1974204Y-356166D01*
X1973285Y-353235D01*
X1972170Y-350375D01*
X1970864Y-347596D01*
X1969373Y-344911D01*
X1967707Y-342333D01*
X1965868Y-339874D01*
X1963869Y-337545D01*
X1961715Y-335356D01*
X1959419Y-333316D01*
X1956991Y-331436D01*
X1954443Y-329727D01*
X1951784Y-328190D01*
X1949028Y-326839D01*
X1946186Y-325676D01*
X1943272Y-324708D01*
X1940300Y-323938D01*
X1937283Y-323369D01*
X1934232Y-323009D01*
X1931167Y-322854D01*
X1928098Y-322905D01*
X1925038Y-323164D01*
X1922002Y-323629D01*
X1919008Y-324297D01*
X1916061Y-325168D01*
X1913183Y-326232D01*
X1910382Y-327492D01*
X1907672Y-328935D01*
X1905068Y-330560D01*
X1902576Y-332356D01*
X1900214Y-334317D01*
X1897989Y-336433D01*
X1895911Y-338693D01*
X1893991Y-341088D01*
X1892239Y-343608D01*
X1890659Y-346242D01*
X1889259Y-348975D01*
X1888048Y-351795D01*
X1887032Y-354693D01*
X1886211Y-357652D01*
X1885594Y-360659D01*
X1885180Y-363702D01*
X1884972Y-366765D01*
X1884972Y-369834D01*
X1885180Y-372897D01*
X1885594Y-375940D01*
X1886211Y-378947D01*
X1887032Y-381906D01*
X1888048Y-384804D01*
X1889259Y-387624D01*
X1890659Y-390357D01*
X1892239Y-392991D01*
X1893991Y-395511D01*
X1895911Y-397906D01*
X1897989Y-400166D01*
X1900214Y-402282D01*
X1902576Y-404243D01*
X1905068Y-406039D01*
X1907672Y-407664D01*
X1910382Y-409107D01*
X1913183Y-410367D01*
X1916061Y-411431D01*
X1919008Y-412302D01*
X1922002Y-412970D01*
X1925038Y-413435D01*
X1928098Y-413694D01*
G37*
G36*
X572267Y-413745D02*
G01*
X575332Y-413590D01*
X578383Y-413230D01*
X581400Y-412661D01*
X584372Y-411891D01*
X587286Y-410923D01*
X590128Y-409760D01*
X592884Y-408409D01*
X595543Y-406872D01*
X598091Y-405163D01*
X600519Y-403283D01*
X602815Y-401243D01*
X604969Y-399054D01*
X606968Y-396725D01*
X608807Y-394266D01*
X610473Y-391688D01*
X611964Y-389003D01*
X613270Y-386224D01*
X614385Y-383364D01*
X615304Y-380433D01*
X616023Y-377449D01*
X616539Y-374423D01*
X616849Y-371368D01*
X616953Y-368300D01*
X616849Y-365231D01*
X616539Y-362176D01*
X616023Y-359150D01*
X615304Y-356166D01*
X614385Y-353235D01*
X613270Y-350375D01*
X611964Y-347596D01*
X610473Y-344911D01*
X608807Y-342333D01*
X606968Y-339874D01*
X604969Y-337545D01*
X602815Y-335356D01*
X600519Y-333316D01*
X598091Y-331436D01*
X595543Y-329727D01*
X592884Y-328190D01*
X590128Y-326839D01*
X587286Y-325676D01*
X584372Y-324708D01*
X581400Y-323938D01*
X578383Y-323369D01*
X575332Y-323009D01*
X572267Y-322854D01*
X569198Y-322905D01*
X566138Y-323164D01*
X563102Y-323629D01*
X560108Y-324297D01*
X557161Y-325168D01*
X554283Y-326232D01*
X551482Y-327492D01*
X548772Y-328935D01*
X546168Y-330560D01*
X543676Y-332356D01*
X541314Y-334317D01*
X539089Y-336433D01*
X537011Y-338693D01*
X535091Y-341088D01*
X533339Y-343608D01*
X531759Y-346242D01*
X530359Y-348975D01*
X529148Y-351795D01*
X528132Y-354693D01*
X527311Y-357652D01*
X526694Y-360659D01*
X526280Y-363702D01*
X526072Y-366765D01*
X526072Y-369834D01*
X526280Y-372897D01*
X526694Y-375940D01*
X527311Y-378947D01*
X528132Y-381906D01*
X529148Y-384804D01*
X530359Y-387624D01*
X531759Y-390357D01*
X533339Y-392991D01*
X535091Y-395511D01*
X537011Y-397906D01*
X539089Y-400166D01*
X541314Y-402282D01*
X543676Y-404243D01*
X546168Y-406039D01*
X548772Y-407664D01*
X551482Y-409107D01*
X554283Y-410367D01*
X557161Y-411431D01*
X560108Y-412302D01*
X563102Y-412970D01*
X566138Y-413435D01*
X569198Y-413694D01*
G37*
G36*
X127767Y-388345D02*
G01*
X130832Y-388190D01*
X133883Y-387830D01*
X136900Y-387261D01*
X139872Y-386491D01*
X142786Y-385523D01*
X145628Y-384360D01*
X148384Y-383009D01*
X151043Y-381472D01*
X153591Y-379763D01*
X156019Y-377883D01*
X158315Y-375843D01*
X160469Y-373654D01*
X162468Y-371325D01*
X164307Y-368866D01*
X165973Y-366288D01*
X167464Y-363603D01*
X168770Y-360824D01*
X169885Y-357964D01*
X170804Y-355033D01*
X171523Y-352049D01*
X172039Y-349023D01*
X172349Y-345968D01*
X172453Y-342900D01*
X172349Y-339831D01*
X172039Y-336776D01*
X171523Y-333750D01*
X170804Y-330766D01*
X169885Y-327835D01*
X168770Y-324975D01*
X167464Y-322196D01*
X165973Y-319511D01*
X164307Y-316933D01*
X162468Y-314474D01*
X160469Y-312145D01*
X158315Y-309956D01*
X156019Y-307916D01*
X153591Y-306036D01*
X151747Y-304800D01*
X153591Y-303563D01*
X156019Y-301683D01*
X158315Y-299643D01*
X158374Y-299585D01*
X158394Y-299740D01*
X159011Y-302747D01*
X159832Y-305706D01*
X160848Y-308604D01*
X162059Y-311424D01*
X163459Y-314157D01*
X165039Y-316791D01*
X166791Y-319311D01*
X168711Y-321706D01*
X170789Y-323966D01*
X173014Y-326082D01*
X175376Y-328043D01*
X177868Y-329839D01*
X180472Y-331464D01*
X183182Y-332907D01*
X185983Y-334167D01*
X188861Y-335231D01*
X191808Y-336102D01*
X194802Y-336770D01*
X197838Y-337235D01*
X200898Y-337494D01*
X203967Y-337545D01*
X207032Y-337390D01*
X210083Y-337030D01*
X213100Y-336461D01*
X216072Y-335691D01*
X218986Y-334723D01*
X221828Y-333560D01*
X224584Y-332209D01*
X227243Y-330672D01*
X229791Y-328963D01*
X232219Y-327083D01*
X234515Y-325043D01*
X236669Y-322854D01*
X238668Y-320525D01*
X240507Y-318066D01*
X242173Y-315488D01*
X243664Y-312803D01*
X244970Y-310024D01*
X246085Y-307164D01*
X247004Y-304233D01*
X247723Y-301249D01*
X248239Y-298223D01*
X248549Y-295168D01*
X248653Y-292100D01*
X248549Y-289031D01*
X248239Y-285976D01*
X247723Y-282950D01*
X247004Y-279966D01*
X246085Y-277035D01*
X244970Y-274175D01*
X243664Y-271396D01*
X242173Y-268711D01*
X240507Y-266133D01*
X238668Y-263674D01*
X236669Y-261345D01*
X234515Y-259156D01*
X232219Y-257116D01*
X229791Y-255236D01*
X227243Y-253527D01*
X224584Y-251990D01*
X221828Y-250639D01*
X218986Y-249476D01*
X216072Y-248508D01*
X213100Y-247738D01*
X210083Y-247169D01*
X207032Y-246809D01*
X203967Y-246654D01*
X200898Y-246705D01*
X197838Y-246964D01*
X194802Y-247429D01*
X191808Y-248097D01*
X188861Y-248968D01*
X185983Y-250032D01*
X183182Y-251292D01*
X180472Y-252735D01*
X177868Y-254360D01*
X175376Y-256156D01*
X173014Y-258117D01*
X171815Y-259257D01*
X171523Y-257550D01*
X170804Y-254566D01*
X169885Y-251635D01*
X168770Y-248775D01*
X167464Y-245996D01*
X165973Y-243311D01*
X164307Y-240733D01*
X162468Y-238274D01*
X160469Y-235945D01*
X158315Y-233756D01*
X156019Y-231716D01*
X153591Y-229836D01*
X151043Y-228127D01*
X148384Y-226590D01*
X145628Y-225239D01*
X142786Y-224076D01*
X139872Y-223108D01*
X136900Y-222338D01*
X133883Y-221769D01*
X130832Y-221409D01*
X127767Y-221254D01*
X124698Y-221305D01*
X121638Y-221564D01*
X118602Y-222029D01*
X115608Y-222697D01*
X112661Y-223568D01*
X109783Y-224632D01*
X106982Y-225892D01*
X104272Y-227335D01*
X101668Y-228960D01*
X99176Y-230756D01*
X96814Y-232717D01*
X94589Y-234833D01*
X92511Y-237093D01*
X90591Y-239488D01*
X88839Y-242008D01*
X87259Y-244642D01*
X85859Y-247375D01*
X84648Y-250195D01*
X83632Y-253093D01*
X82811Y-256052D01*
X82194Y-259059D01*
X81780Y-262102D01*
X81572Y-265165D01*
X81572Y-268234D01*
X81780Y-271297D01*
X82194Y-274340D01*
X82811Y-277347D01*
X83632Y-280306D01*
X84648Y-283204D01*
X85859Y-286024D01*
X87259Y-288757D01*
X88839Y-291391D01*
X90591Y-293911D01*
X92511Y-296306D01*
X94589Y-298566D01*
X96814Y-300682D01*
X99176Y-302643D01*
X101668Y-304439D01*
X102245Y-304800D01*
X101668Y-305160D01*
X99176Y-306956D01*
X96814Y-308917D01*
X94589Y-311033D01*
X92511Y-313293D01*
X90591Y-315688D01*
X88839Y-318208D01*
X87259Y-320842D01*
X85859Y-323575D01*
X84648Y-326395D01*
X83632Y-329293D01*
X82811Y-332252D01*
X82194Y-335259D01*
X81780Y-338302D01*
X81572Y-341365D01*
X81572Y-344434D01*
X81780Y-347497D01*
X82194Y-350540D01*
X82811Y-353547D01*
X83632Y-356506D01*
X84648Y-359404D01*
X85859Y-362224D01*
X87259Y-364957D01*
X88839Y-367591D01*
X90591Y-370111D01*
X92511Y-372506D01*
X94589Y-374766D01*
X96814Y-376882D01*
X99176Y-378843D01*
X101668Y-380639D01*
X104272Y-382264D01*
X106982Y-383707D01*
X109783Y-384967D01*
X112661Y-386031D01*
X115608Y-386902D01*
X118602Y-387570D01*
X121638Y-388035D01*
X124698Y-388294D01*
G37*
G36*
X2221654Y-347545D02*
G01*
X2225034Y-347494D01*
X2228408Y-347238D01*
X2231758Y-346776D01*
X2235075Y-346108D01*
X2238344Y-345241D01*
X2241555Y-344177D01*
X2244694Y-342917D01*
X2247750Y-341469D01*
X2250714Y-339839D01*
X2253571Y-338030D01*
X2256312Y-336052D01*
X2258931Y-333908D01*
X2261410Y-331609D01*
X2263747Y-329163D01*
X2265931Y-326580D01*
X2267950Y-323867D01*
X2269804Y-321038D01*
X2271478Y-318099D01*
X2272974Y-315066D01*
X2274280Y-311947D01*
X2275392Y-308752D01*
X2276309Y-305495D01*
X2277026Y-302191D01*
X2277541Y-298848D01*
X2277849Y-295480D01*
X2277953Y-292100D01*
X2277849Y-288719D01*
X2277541Y-285351D01*
X2277026Y-282008D01*
X2276309Y-278704D01*
X2275392Y-275447D01*
X2274280Y-272252D01*
X2272974Y-269133D01*
X2271478Y-266100D01*
X2269804Y-263161D01*
X2267950Y-260332D01*
X2265931Y-257619D01*
X2263747Y-255036D01*
X2261410Y-252590D01*
X2258931Y-250291D01*
X2256312Y-248147D01*
X2253571Y-246169D01*
X2250714Y-244360D01*
X2247750Y-242730D01*
X2244694Y-241282D01*
X2241555Y-240022D01*
X2238344Y-238958D01*
X2235075Y-238091D01*
X2231758Y-237423D01*
X2228408Y-236961D01*
X2225034Y-236705D01*
X2221654Y-236654D01*
X2218275Y-236806D01*
X2214913Y-237167D01*
X2211577Y-237733D01*
X2208283Y-238500D01*
X2205042Y-239466D01*
X2201865Y-240629D01*
X2198766Y-241983D01*
X2195756Y-243522D01*
X2192842Y-245242D01*
X2190041Y-247136D01*
X2187361Y-249199D01*
X2184811Y-251421D01*
X2182401Y-253796D01*
X2180140Y-256311D01*
X2178037Y-258960D01*
X2176101Y-261731D01*
X2174336Y-264617D01*
X2172749Y-267604D01*
X2171349Y-270682D01*
X2170137Y-273842D01*
X2169121Y-277068D01*
X2168306Y-280349D01*
X2167689Y-283674D01*
X2167277Y-287032D01*
X2167072Y-290408D01*
X2167072Y-293791D01*
X2167277Y-297167D01*
X2167689Y-300525D01*
X2168306Y-303850D01*
X2169121Y-307131D01*
X2170137Y-310357D01*
X2171349Y-313517D01*
X2172749Y-316595D01*
X2174336Y-319582D01*
X2176101Y-322468D01*
X2178037Y-325239D01*
X2180140Y-327888D01*
X2182401Y-330403D01*
X2184811Y-332778D01*
X2187361Y-335000D01*
X2190041Y-337063D01*
X2192842Y-338957D01*
X2195756Y-340677D01*
X2198766Y-342216D01*
X2201865Y-343570D01*
X2205042Y-344733D01*
X2208283Y-345699D01*
X2211577Y-346466D01*
X2214913Y-347032D01*
X2218275Y-347393D01*
G37*
G36*
X1473967Y-337545D02*
G01*
X1477032Y-337390D01*
X1480083Y-337030D01*
X1483100Y-336461D01*
X1486072Y-335691D01*
X1488986Y-334723D01*
X1491828Y-333560D01*
X1494584Y-332209D01*
X1497243Y-330672D01*
X1499791Y-328963D01*
X1502219Y-327083D01*
X1504515Y-325043D01*
X1506669Y-322854D01*
X1508668Y-320525D01*
X1510507Y-318066D01*
X1512173Y-315488D01*
X1513664Y-312803D01*
X1514970Y-310024D01*
X1516085Y-307164D01*
X1517004Y-304233D01*
X1517723Y-301249D01*
X1518239Y-298223D01*
X1518549Y-295168D01*
X1518653Y-292100D01*
X1518549Y-289031D01*
X1518239Y-285976D01*
X1517723Y-282950D01*
X1517004Y-279966D01*
X1516085Y-277035D01*
X1514970Y-274175D01*
X1513664Y-271396D01*
X1512173Y-268711D01*
X1510507Y-266133D01*
X1508668Y-263674D01*
X1506669Y-261345D01*
X1504515Y-259156D01*
X1502219Y-257116D01*
X1499791Y-255236D01*
X1497243Y-253527D01*
X1494584Y-251990D01*
X1491828Y-250639D01*
X1488986Y-249476D01*
X1486072Y-248508D01*
X1483100Y-247738D01*
X1480083Y-247169D01*
X1477032Y-246809D01*
X1473967Y-246654D01*
X1470898Y-246705D01*
X1467838Y-246964D01*
X1464802Y-247429D01*
X1461808Y-248097D01*
X1458861Y-248968D01*
X1455983Y-250032D01*
X1453182Y-251292D01*
X1450472Y-252735D01*
X1447868Y-254360D01*
X1445376Y-256156D01*
X1443014Y-258117D01*
X1440789Y-260233D01*
X1438711Y-262493D01*
X1436791Y-264888D01*
X1435039Y-267408D01*
X1433459Y-270042D01*
X1432059Y-272775D01*
X1430848Y-275595D01*
X1429832Y-278493D01*
X1429011Y-281452D01*
X1428394Y-284459D01*
X1427980Y-287502D01*
X1427772Y-290565D01*
X1427772Y-293634D01*
X1427980Y-296697D01*
X1428394Y-299740D01*
X1429011Y-302747D01*
X1429832Y-305706D01*
X1430848Y-308604D01*
X1432059Y-311424D01*
X1433459Y-314157D01*
X1435039Y-316791D01*
X1436791Y-319311D01*
X1438711Y-321706D01*
X1440789Y-323966D01*
X1443014Y-326082D01*
X1445376Y-328043D01*
X1447868Y-329839D01*
X1450472Y-331464D01*
X1453182Y-332907D01*
X1455983Y-334167D01*
X1458861Y-335231D01*
X1461808Y-336102D01*
X1464802Y-336770D01*
X1467838Y-337235D01*
X1470898Y-337494D01*
G37*
G36*
X559567Y-286745D02*
G01*
X562632Y-286590D01*
X565683Y-286230D01*
X568700Y-285661D01*
X571672Y-284891D01*
X574586Y-283923D01*
X577428Y-282760D01*
X580184Y-281409D01*
X582843Y-279872D01*
X585391Y-278163D01*
X587819Y-276283D01*
X590115Y-274243D01*
X592269Y-272054D01*
X594268Y-269725D01*
X596107Y-267266D01*
X597773Y-264688D01*
X599264Y-262003D01*
X600570Y-259224D01*
X601685Y-256364D01*
X602604Y-253433D01*
X603323Y-250449D01*
X603839Y-247423D01*
X604149Y-244368D01*
X604253Y-241300D01*
X604149Y-238231D01*
X603839Y-235176D01*
X603323Y-232150D01*
X602604Y-229166D01*
X601685Y-226235D01*
X600570Y-223375D01*
X599264Y-220596D01*
X597773Y-217911D01*
X596107Y-215333D01*
X594268Y-212874D01*
X592269Y-210545D01*
X590115Y-208356D01*
X587819Y-206316D01*
X585391Y-204436D01*
X582843Y-202727D01*
X580184Y-201190D01*
X577428Y-199839D01*
X574586Y-198676D01*
X571672Y-197708D01*
X568700Y-196938D01*
X565683Y-196369D01*
X562632Y-196009D01*
X559567Y-195854D01*
X556498Y-195905D01*
X553438Y-196164D01*
X550402Y-196629D01*
X547408Y-197297D01*
X544461Y-198168D01*
X541583Y-199232D01*
X538782Y-200492D01*
X536072Y-201935D01*
X533468Y-203560D01*
X530976Y-205356D01*
X528614Y-207317D01*
X526389Y-209433D01*
X524311Y-211693D01*
X522391Y-214088D01*
X520639Y-216608D01*
X519059Y-219242D01*
X517659Y-221975D01*
X516448Y-224795D01*
X515432Y-227693D01*
X514611Y-230652D01*
X513994Y-233659D01*
X513580Y-236702D01*
X513372Y-239765D01*
X513372Y-242834D01*
X513580Y-245897D01*
X513994Y-248940D01*
X514611Y-251947D01*
X515432Y-254906D01*
X516448Y-257804D01*
X517659Y-260624D01*
X519059Y-263357D01*
X520639Y-265991D01*
X522391Y-268511D01*
X524311Y-270906D01*
X526389Y-273166D01*
X528614Y-275282D01*
X530976Y-277243D01*
X533468Y-279039D01*
X536072Y-280664D01*
X538782Y-282107D01*
X541583Y-283367D01*
X544461Y-284431D01*
X547408Y-285302D01*
X550402Y-285970D01*
X553438Y-286435D01*
X556498Y-286694D01*
G37*
G36*
X737367Y-274045D02*
G01*
X740432Y-273890D01*
X743483Y-273530D01*
X746500Y-272961D01*
X749472Y-272191D01*
X752386Y-271223D01*
X755228Y-270060D01*
X757984Y-268709D01*
X760643Y-267172D01*
X763191Y-265463D01*
X765619Y-263583D01*
X767915Y-261543D01*
X770069Y-259354D01*
X772068Y-257025D01*
X773907Y-254566D01*
X775573Y-251988D01*
X777064Y-249303D01*
X778370Y-246524D01*
X779485Y-243664D01*
X780404Y-240733D01*
X781123Y-237749D01*
X781639Y-234723D01*
X781949Y-231668D01*
X782053Y-228600D01*
X781949Y-225531D01*
X781639Y-222476D01*
X781123Y-219450D01*
X780404Y-216466D01*
X779485Y-213535D01*
X778370Y-210675D01*
X777064Y-207896D01*
X775573Y-205211D01*
X773907Y-202633D01*
X772068Y-200174D01*
X770069Y-197845D01*
X767915Y-195656D01*
X765619Y-193616D01*
X763191Y-191736D01*
X760643Y-190027D01*
X757984Y-188490D01*
X755228Y-187139D01*
X752386Y-185976D01*
X749472Y-185008D01*
X746500Y-184238D01*
X743483Y-183669D01*
X740432Y-183309D01*
X737367Y-183154D01*
X734298Y-183205D01*
X731238Y-183464D01*
X728202Y-183929D01*
X725208Y-184597D01*
X722261Y-185468D01*
X719383Y-186532D01*
X716582Y-187792D01*
X713872Y-189235D01*
X711268Y-190860D01*
X708776Y-192656D01*
X706414Y-194617D01*
X704189Y-196733D01*
X702111Y-198993D01*
X700191Y-201388D01*
X698439Y-203908D01*
X696859Y-206542D01*
X695459Y-209275D01*
X694248Y-212095D01*
X693232Y-214993D01*
X692411Y-217952D01*
X691794Y-220959D01*
X691380Y-224002D01*
X691172Y-227065D01*
X691172Y-230134D01*
X691380Y-233197D01*
X691794Y-236240D01*
X692411Y-239247D01*
X693232Y-242206D01*
X694248Y-245104D01*
X695459Y-247924D01*
X696859Y-250657D01*
X698439Y-253291D01*
X700191Y-255811D01*
X702111Y-258206D01*
X704189Y-260466D01*
X706414Y-262582D01*
X708776Y-264543D01*
X711268Y-266339D01*
X713872Y-267964D01*
X716582Y-269407D01*
X719383Y-270667D01*
X722261Y-271731D01*
X725208Y-272602D01*
X728202Y-273270D01*
X731238Y-273735D01*
X734298Y-273994D01*
G37*
G36*
X2221654Y-233245D02*
G01*
X2225034Y-233194D01*
X2228408Y-232938D01*
X2231758Y-232476D01*
X2235075Y-231808D01*
X2238344Y-230941D01*
X2241555Y-229877D01*
X2244694Y-228617D01*
X2247750Y-227169D01*
X2250714Y-225539D01*
X2253571Y-223730D01*
X2256312Y-221752D01*
X2258931Y-219608D01*
X2261410Y-217309D01*
X2263747Y-214863D01*
X2265931Y-212280D01*
X2267950Y-209567D01*
X2269804Y-206738D01*
X2271478Y-203799D01*
X2272974Y-200766D01*
X2274280Y-197647D01*
X2275392Y-194452D01*
X2276309Y-191195D01*
X2277026Y-187891D01*
X2277541Y-184548D01*
X2277849Y-181180D01*
X2277953Y-177800D01*
X2277849Y-174419D01*
X2277541Y-171051D01*
X2277026Y-167708D01*
X2276309Y-164404D01*
X2275392Y-161147D01*
X2274280Y-157952D01*
X2272974Y-154833D01*
X2271478Y-151800D01*
X2269804Y-148861D01*
X2267950Y-146032D01*
X2265931Y-143319D01*
X2263747Y-140736D01*
X2261410Y-138290D01*
X2258931Y-135991D01*
X2256312Y-133847D01*
X2253571Y-131869D01*
X2250714Y-130060D01*
X2247750Y-128430D01*
X2244694Y-126982D01*
X2241555Y-125722D01*
X2238344Y-124658D01*
X2235075Y-123791D01*
X2231758Y-123123D01*
X2228408Y-122661D01*
X2225034Y-122405D01*
X2221654Y-122354D01*
X2218275Y-122506D01*
X2214913Y-122867D01*
X2211577Y-123433D01*
X2208283Y-124200D01*
X2205042Y-125166D01*
X2201865Y-126329D01*
X2198766Y-127683D01*
X2195756Y-129222D01*
X2192842Y-130942D01*
X2190041Y-132836D01*
X2187361Y-134899D01*
X2184811Y-137121D01*
X2182401Y-139496D01*
X2180140Y-142011D01*
X2178037Y-144660D01*
X2176101Y-147431D01*
X2174336Y-150317D01*
X2172749Y-153304D01*
X2171349Y-156382D01*
X2170137Y-159542D01*
X2169121Y-162768D01*
X2168306Y-166049D01*
X2167689Y-169374D01*
X2167277Y-172732D01*
X2167072Y-176108D01*
X2167072Y-179491D01*
X2167277Y-182867D01*
X2167689Y-186225D01*
X2168306Y-189550D01*
X2169121Y-192831D01*
X2170137Y-196057D01*
X2171349Y-199217D01*
X2172749Y-202295D01*
X2174336Y-205282D01*
X2176101Y-208168D01*
X2178037Y-210939D01*
X2180140Y-213588D01*
X2182401Y-216103D01*
X2184811Y-218478D01*
X2187361Y-220700D01*
X2190041Y-222763D01*
X2192842Y-224657D01*
X2195756Y-226377D01*
X2198766Y-227916D01*
X2201865Y-229270D01*
X2205042Y-230433D01*
X2208283Y-231399D01*
X2211577Y-232166D01*
X2214913Y-232732D01*
X2218275Y-233093D01*
G37*
G36*
X203967Y-210545D02*
G01*
X207032Y-210390D01*
X210083Y-210030D01*
X213100Y-209461D01*
X216072Y-208691D01*
X218986Y-207723D01*
X221828Y-206560D01*
X224584Y-205209D01*
X227243Y-203672D01*
X229791Y-201963D01*
X232219Y-200083D01*
X234515Y-198043D01*
X236669Y-195854D01*
X238668Y-193525D01*
X240507Y-191066D01*
X242173Y-188488D01*
X243664Y-185803D01*
X244970Y-183024D01*
X246085Y-180164D01*
X247004Y-177233D01*
X247723Y-174249D01*
X248239Y-171223D01*
X248549Y-168168D01*
X248653Y-165100D01*
X248549Y-162031D01*
X248239Y-158976D01*
X247723Y-155950D01*
X247004Y-152966D01*
X246085Y-150035D01*
X244970Y-147175D01*
X243664Y-144396D01*
X242173Y-141711D01*
X240507Y-139133D01*
X238668Y-136674D01*
X236669Y-134345D01*
X234515Y-132156D01*
X232219Y-130116D01*
X229791Y-128236D01*
X227243Y-126527D01*
X224584Y-124990D01*
X221828Y-123639D01*
X218986Y-122476D01*
X216072Y-121508D01*
X213100Y-120738D01*
X210083Y-120169D01*
X207032Y-119809D01*
X203967Y-119654D01*
X200898Y-119705D01*
X197838Y-119964D01*
X194802Y-120429D01*
X191808Y-121097D01*
X188861Y-121968D01*
X185983Y-123032D01*
X183182Y-124292D01*
X180472Y-125735D01*
X177868Y-127360D01*
X175376Y-129156D01*
X173014Y-131117D01*
X170789Y-133233D01*
X168711Y-135493D01*
X166791Y-137888D01*
X165039Y-140408D01*
X163459Y-143042D01*
X162059Y-145775D01*
X160848Y-148595D01*
X159832Y-151493D01*
X159011Y-154452D01*
X158394Y-157459D01*
X157980Y-160502D01*
X157772Y-163565D01*
X157772Y-166634D01*
X157980Y-169697D01*
X158394Y-172740D01*
X159011Y-175747D01*
X159832Y-178706D01*
X160848Y-181604D01*
X162059Y-184424D01*
X163459Y-187157D01*
X165039Y-189791D01*
X166791Y-192311D01*
X168711Y-194706D01*
X170789Y-196966D01*
X173014Y-199082D01*
X175376Y-201043D01*
X177868Y-202839D01*
X180472Y-204464D01*
X183182Y-205907D01*
X185983Y-207167D01*
X188861Y-208231D01*
X191808Y-209102D01*
X194802Y-209770D01*
X197838Y-210235D01*
X200898Y-210494D01*
G37*
G36*
X2070867Y-210545D02*
G01*
X2073932Y-210390D01*
X2076983Y-210030D01*
X2080000Y-209461D01*
X2082972Y-208691D01*
X2085886Y-207723D01*
X2088728Y-206560D01*
X2091484Y-205209D01*
X2094143Y-203672D01*
X2096691Y-201963D01*
X2099119Y-200083D01*
X2101415Y-198043D01*
X2103569Y-195854D01*
X2105568Y-193525D01*
X2107407Y-191066D01*
X2109073Y-188488D01*
X2110564Y-185803D01*
X2111870Y-183024D01*
X2112985Y-180164D01*
X2113904Y-177233D01*
X2114623Y-174249D01*
X2115139Y-171223D01*
X2115449Y-168168D01*
X2115553Y-165100D01*
X2115449Y-162031D01*
X2115139Y-158976D01*
X2114623Y-155950D01*
X2113904Y-152966D01*
X2112985Y-150035D01*
X2111870Y-147175D01*
X2110564Y-144396D01*
X2109073Y-141711D01*
X2107407Y-139133D01*
X2105568Y-136674D01*
X2103569Y-134345D01*
X2101415Y-132156D01*
X2099119Y-130116D01*
X2096691Y-128236D01*
X2094143Y-126527D01*
X2091484Y-124990D01*
X2088728Y-123639D01*
X2085886Y-122476D01*
X2082972Y-121508D01*
X2080000Y-120738D01*
X2076983Y-120169D01*
X2073932Y-119809D01*
X2070867Y-119654D01*
X2067798Y-119705D01*
X2064738Y-119964D01*
X2061702Y-120429D01*
X2058708Y-121097D01*
X2055761Y-121968D01*
X2052883Y-123032D01*
X2050082Y-124292D01*
X2047372Y-125735D01*
X2044768Y-127360D01*
X2042276Y-129156D01*
X2039914Y-131117D01*
X2037689Y-133233D01*
X2035611Y-135493D01*
X2033691Y-137888D01*
X2031939Y-140408D01*
X2030359Y-143042D01*
X2028959Y-145775D01*
X2027748Y-148595D01*
X2026732Y-151493D01*
X2025911Y-154452D01*
X2025294Y-157459D01*
X2024880Y-160502D01*
X2024672Y-163565D01*
X2024672Y-166634D01*
X2024880Y-169697D01*
X2025294Y-172740D01*
X2025911Y-175747D01*
X2026732Y-178706D01*
X2027748Y-181604D01*
X2028959Y-184424D01*
X2030359Y-187157D01*
X2031939Y-189791D01*
X2033691Y-192311D01*
X2035611Y-194706D01*
X2037689Y-196966D01*
X2039914Y-199082D01*
X2042276Y-201043D01*
X2044768Y-202839D01*
X2047372Y-204464D01*
X2050082Y-205907D01*
X2052883Y-207167D01*
X2055761Y-208231D01*
X2058708Y-209102D01*
X2061702Y-209770D01*
X2064738Y-210235D01*
X2067798Y-210494D01*
G37*
G36*
X1283467Y-159745D02*
G01*
X1286532Y-159590D01*
X1289583Y-159230D01*
X1292600Y-158661D01*
X1295572Y-157891D01*
X1298486Y-156923D01*
X1301328Y-155760D01*
X1304084Y-154409D01*
X1306743Y-152872D01*
X1309291Y-151163D01*
X1311719Y-149283D01*
X1314015Y-147243D01*
X1316169Y-145054D01*
X1318168Y-142725D01*
X1320007Y-140266D01*
X1321673Y-137688D01*
X1323164Y-135003D01*
X1324470Y-132224D01*
X1325585Y-129364D01*
X1326504Y-126433D01*
X1327223Y-123449D01*
X1327739Y-120423D01*
X1328049Y-117368D01*
X1328153Y-114300D01*
X1328049Y-111231D01*
X1327739Y-108176D01*
X1327223Y-105150D01*
X1326504Y-102166D01*
X1325585Y-99235D01*
X1324470Y-96375D01*
X1323164Y-93596D01*
X1321673Y-90911D01*
X1320007Y-88333D01*
X1318168Y-85874D01*
X1316169Y-83545D01*
X1314015Y-81356D01*
X1311719Y-79316D01*
X1309291Y-77436D01*
X1306743Y-75727D01*
X1304084Y-74190D01*
X1301328Y-72839D01*
X1298486Y-71676D01*
X1295572Y-70708D01*
X1292600Y-69938D01*
X1289583Y-69369D01*
X1286532Y-69009D01*
X1283467Y-68854D01*
X1280398Y-68905D01*
X1277338Y-69164D01*
X1274302Y-69629D01*
X1271308Y-70297D01*
X1268361Y-71168D01*
X1265483Y-72232D01*
X1262682Y-73492D01*
X1259972Y-74935D01*
X1257368Y-76560D01*
X1254876Y-78356D01*
X1252514Y-80317D01*
X1250289Y-82433D01*
X1248211Y-84693D01*
X1246291Y-87088D01*
X1244539Y-89608D01*
X1242959Y-92242D01*
X1241559Y-94975D01*
X1240348Y-97795D01*
X1239332Y-100693D01*
X1238511Y-103652D01*
X1237894Y-106659D01*
X1237480Y-109702D01*
X1237272Y-112765D01*
X1237272Y-115834D01*
X1237480Y-118897D01*
X1237894Y-121940D01*
X1238511Y-124947D01*
X1239332Y-127906D01*
X1240348Y-130804D01*
X1241559Y-133624D01*
X1242959Y-136357D01*
X1244539Y-138991D01*
X1246291Y-141511D01*
X1248211Y-143906D01*
X1250289Y-146166D01*
X1252514Y-148282D01*
X1254876Y-150243D01*
X1257368Y-152039D01*
X1259972Y-153664D01*
X1262682Y-155107D01*
X1265483Y-156367D01*
X1268361Y-157431D01*
X1271308Y-158302D01*
X1274302Y-158970D01*
X1277338Y-159435D01*
X1280398Y-159694D01*
G37*
G36*
X877067Y-134345D02*
G01*
X880132Y-134190D01*
X883183Y-133830D01*
X886200Y-133261D01*
X889172Y-132491D01*
X892086Y-131523D01*
X894928Y-130360D01*
X897684Y-129009D01*
X900343Y-127472D01*
X902891Y-125763D01*
X905319Y-123883D01*
X907615Y-121843D01*
X909769Y-119654D01*
X911768Y-117325D01*
X913607Y-114866D01*
X915273Y-112288D01*
X916764Y-109603D01*
X918070Y-106824D01*
X919185Y-103964D01*
X920104Y-101033D01*
X920823Y-98049D01*
X921339Y-95023D01*
X921649Y-91968D01*
X921753Y-88900D01*
X921649Y-85831D01*
X921339Y-82776D01*
X920823Y-79750D01*
X920104Y-76766D01*
X919185Y-73835D01*
X918070Y-70975D01*
X916764Y-68196D01*
X915273Y-65511D01*
X913607Y-62933D01*
X911768Y-60474D01*
X909769Y-58145D01*
X907615Y-55956D01*
X905319Y-53916D01*
X902891Y-52036D01*
X900343Y-50327D01*
X897684Y-48790D01*
X894928Y-47439D01*
X892086Y-46276D01*
X889172Y-45308D01*
X886200Y-44538D01*
X883183Y-43969D01*
X880132Y-43609D01*
X877067Y-43454D01*
X873998Y-43505D01*
X870938Y-43764D01*
X867902Y-44229D01*
X864908Y-44897D01*
X861961Y-45768D01*
X859083Y-46832D01*
X856282Y-48092D01*
X853572Y-49535D01*
X850968Y-51160D01*
X848476Y-52956D01*
X846114Y-54917D01*
X843889Y-57033D01*
X841811Y-59293D01*
X839891Y-61688D01*
X838139Y-64208D01*
X836559Y-66842D01*
X835159Y-69575D01*
X833948Y-72395D01*
X832932Y-75293D01*
X832111Y-78252D01*
X831494Y-81259D01*
X831080Y-84302D01*
X830872Y-87365D01*
X830872Y-90434D01*
X831080Y-93497D01*
X831494Y-96540D01*
X832111Y-99547D01*
X832932Y-102506D01*
X833948Y-105404D01*
X835159Y-108224D01*
X836559Y-110957D01*
X838139Y-113591D01*
X839891Y-116111D01*
X841811Y-118506D01*
X843889Y-120766D01*
X846114Y-122882D01*
X848476Y-124843D01*
X850968Y-126639D01*
X853572Y-128264D01*
X856282Y-129707D01*
X859083Y-130967D01*
X861961Y-132031D01*
X864908Y-132902D01*
X867902Y-133570D01*
X870938Y-134035D01*
X873998Y-134294D01*
G37*
G36*
X2221654Y-118945D02*
G01*
X2225034Y-118894D01*
X2228408Y-118638D01*
X2231758Y-118176D01*
X2235075Y-117508D01*
X2238344Y-116641D01*
X2241555Y-115577D01*
X2244694Y-114317D01*
X2247750Y-112869D01*
X2250714Y-111239D01*
X2253571Y-109430D01*
X2256312Y-107452D01*
X2258931Y-105308D01*
X2261410Y-103009D01*
X2263747Y-100563D01*
X2265931Y-97980D01*
X2267950Y-95267D01*
X2269804Y-92438D01*
X2271478Y-89499D01*
X2272974Y-86466D01*
X2274280Y-83347D01*
X2275392Y-80152D01*
X2276309Y-76895D01*
X2277026Y-73591D01*
X2277541Y-70248D01*
X2277849Y-66880D01*
X2277953Y-63500D01*
X2277849Y-60119D01*
X2277541Y-56751D01*
X2277026Y-53408D01*
X2276309Y-50104D01*
X2275392Y-46847D01*
X2274280Y-43652D01*
X2272974Y-40533D01*
X2271478Y-37500D01*
X2269804Y-34561D01*
X2267950Y-31732D01*
X2265931Y-29019D01*
X2263747Y-26436D01*
X2261410Y-23990D01*
X2258931Y-21691D01*
X2256312Y-19547D01*
X2253571Y-17569D01*
X2250714Y-15760D01*
X2247750Y-14130D01*
X2244694Y-12682D01*
X2241555Y-11422D01*
X2238344Y-10358D01*
X2235075Y-9491D01*
X2231758Y-8823D01*
X2228408Y-8361D01*
X2225034Y-8105D01*
X2221654Y-8054D01*
X2218275Y-8206D01*
X2214913Y-8567D01*
X2211577Y-9133D01*
X2208283Y-9900D01*
X2205042Y-10866D01*
X2201865Y-12029D01*
X2198766Y-13383D01*
X2195756Y-14922D01*
X2192842Y-16642D01*
X2190041Y-18536D01*
X2187361Y-20599D01*
X2184811Y-22821D01*
X2182401Y-25196D01*
X2180140Y-27711D01*
X2178037Y-30360D01*
X2176101Y-33131D01*
X2174336Y-36017D01*
X2172749Y-39004D01*
X2171349Y-42082D01*
X2170137Y-45242D01*
X2169121Y-48468D01*
X2168306Y-51749D01*
X2167689Y-55074D01*
X2167277Y-58432D01*
X2167072Y-61808D01*
X2167072Y-65191D01*
X2167277Y-68567D01*
X2167689Y-71925D01*
X2168306Y-75250D01*
X2169121Y-78531D01*
X2170137Y-81757D01*
X2171349Y-84917D01*
X2172749Y-87995D01*
X2174336Y-90982D01*
X2176101Y-93868D01*
X2178037Y-96639D01*
X2180140Y-99288D01*
X2182401Y-101803D01*
X2184811Y-104178D01*
X2187361Y-106400D01*
X2190041Y-108463D01*
X2192842Y-110357D01*
X2195756Y-112077D01*
X2198766Y-113616D01*
X2201865Y-114970D01*
X2205042Y-116133D01*
X2208283Y-117099D01*
X2211577Y-117866D01*
X2214913Y-118432D01*
X2218275Y-118793D01*
G37*
G36*
X203967Y-96245D02*
G01*
X207032Y-96090D01*
X210083Y-95730D01*
X213100Y-95161D01*
X216072Y-94391D01*
X218986Y-93423D01*
X221828Y-92260D01*
X224584Y-90909D01*
X227243Y-89372D01*
X229791Y-87663D01*
X232219Y-85783D01*
X234515Y-83743D01*
X236669Y-81554D01*
X238668Y-79225D01*
X240507Y-76766D01*
X242173Y-74188D01*
X243664Y-71503D01*
X244970Y-68724D01*
X246085Y-65864D01*
X247004Y-62933D01*
X247723Y-59949D01*
X248239Y-56923D01*
X248549Y-53868D01*
X248653Y-50800D01*
X248549Y-47731D01*
X248239Y-44676D01*
X247723Y-41650D01*
X247004Y-38666D01*
X246085Y-35735D01*
X244970Y-32875D01*
X243664Y-30096D01*
X242173Y-27411D01*
X240507Y-24833D01*
X238668Y-22374D01*
X236669Y-20045D01*
X234515Y-17856D01*
X232219Y-15816D01*
X229791Y-13936D01*
X227243Y-12227D01*
X224584Y-10690D01*
X221828Y-9339D01*
X218986Y-8176D01*
X216072Y-7208D01*
X213100Y-6438D01*
X210083Y-5869D01*
X207032Y-5509D01*
X203967Y-5354D01*
X200898Y-5405D01*
X197838Y-5664D01*
X194802Y-6129D01*
X191808Y-6797D01*
X188861Y-7668D01*
X185983Y-8732D01*
X183182Y-9992D01*
X180472Y-11435D01*
X177868Y-13060D01*
X175376Y-14856D01*
X173014Y-16817D01*
X170789Y-18933D01*
X168711Y-21193D01*
X166791Y-23588D01*
X165039Y-26108D01*
X163459Y-28742D01*
X162059Y-31475D01*
X160848Y-34295D01*
X159832Y-37193D01*
X159011Y-40152D01*
X158394Y-43159D01*
X157980Y-46202D01*
X157772Y-49265D01*
X157772Y-52334D01*
X157980Y-55397D01*
X158394Y-58440D01*
X159011Y-61447D01*
X159832Y-64406D01*
X160848Y-67304D01*
X162059Y-70124D01*
X163459Y-72857D01*
X165039Y-75491D01*
X166791Y-78011D01*
X168711Y-80406D01*
X170789Y-82666D01*
X173014Y-84782D01*
X175376Y-86743D01*
X177868Y-88539D01*
X180472Y-90164D01*
X183182Y-91607D01*
X185983Y-92867D01*
X188861Y-93931D01*
X191808Y-94802D01*
X194802Y-95470D01*
X197838Y-95935D01*
X200898Y-96194D01*
G37*
G36*
X1732259Y-49331D02*
G01*
X1735325Y-49176D01*
X1738375Y-48816D01*
X1741393Y-48247D01*
X1744365Y-47477D01*
X1747278Y-46509D01*
X1750120Y-45346D01*
X1752876Y-43995D01*
X1755536Y-42458D01*
X1758083Y-40749D01*
X1760512Y-38869D01*
X1762808Y-36829D01*
X1764962Y-34640D01*
X1766961Y-32311D01*
X1768800Y-29852D01*
X1770466Y-27274D01*
X1771957Y-24589D01*
X1773262Y-21810D01*
X1774377Y-18950D01*
X1775297Y-16019D01*
X1776016Y-13035D01*
X1776531Y-10010D01*
X1776841Y-6954D01*
X1776945Y-3886D01*
X1776841Y-817D01*
X1776531Y2237D01*
X1776016Y5262D01*
X1775297Y8247D01*
X1774377Y11178D01*
X1773262Y14038D01*
X1771957Y16817D01*
X1770466Y19502D01*
X1768800Y22080D01*
X1766961Y24538D01*
X1764962Y26868D01*
X1762808Y29057D01*
X1760512Y31097D01*
X1758083Y32976D01*
X1755536Y34686D01*
X1752876Y36222D01*
X1750120Y37574D01*
X1747278Y38737D01*
X1744365Y39705D01*
X1741393Y40474D01*
X1738375Y41043D01*
X1735325Y41404D01*
X1732259Y41559D01*
X1729191Y41508D01*
X1726130Y41249D01*
X1723095Y40784D01*
X1720100Y40116D01*
X1717154Y39245D01*
X1714276Y38181D01*
X1711474Y36921D01*
X1708764Y35478D01*
X1706161Y33853D01*
X1703669Y32057D01*
X1701307Y30096D01*
X1699082Y27980D01*
X1697004Y25720D01*
X1695084Y23324D01*
X1693331Y20805D01*
X1691751Y18171D01*
X1690352Y15438D01*
X1689140Y12618D01*
X1688124Y9720D01*
X1687304Y6761D01*
X1686686Y3754D01*
X1686272Y711D01*
X1686064Y-2352D01*
X1686064Y-5420D01*
X1686272Y-8483D01*
X1686686Y-11526D01*
X1687304Y-14533D01*
X1688124Y-17492D01*
X1689140Y-20391D01*
X1690352Y-23210D01*
X1691751Y-25943D01*
X1693331Y-28577D01*
X1695084Y-31097D01*
X1697004Y-33492D01*
X1699082Y-35753D01*
X1701307Y-37868D01*
X1703669Y-39829D01*
X1706161Y-41625D01*
X1708764Y-43251D01*
X1711474Y-44693D01*
X1714276Y-45953D01*
X1717154Y-47017D01*
X1720100Y-47889D01*
X1723095Y-48557D01*
X1726130Y-49021D01*
X1729191Y-49281D01*
G37*
G36*
X767Y-45445D02*
G01*
X3832Y-45290D01*
X6883Y-44930D01*
X9900Y-44361D01*
X12872Y-43591D01*
X15786Y-42623D01*
X18628Y-41460D01*
X21384Y-40109D01*
X24043Y-38572D01*
X26591Y-36863D01*
X29019Y-34983D01*
X31315Y-32943D01*
X33469Y-30754D01*
X35468Y-28425D01*
X37307Y-25966D01*
X38973Y-23388D01*
X40464Y-20703D01*
X41770Y-17924D01*
X42885Y-15064D01*
X43804Y-12133D01*
X44523Y-9149D01*
X45039Y-6123D01*
X45349Y-3068D01*
X45453Y0D01*
X45349Y3068D01*
X45039Y6123D01*
X44523Y9149D01*
X43804Y12133D01*
X42885Y15064D01*
X41770Y17924D01*
X40464Y20703D01*
X38973Y23388D01*
X37307Y25966D01*
X35468Y28425D01*
X33469Y30754D01*
X31315Y32943D01*
X29019Y34983D01*
X26591Y36863D01*
X24043Y38572D01*
X21384Y40109D01*
X18628Y41460D01*
X15786Y42623D01*
X12872Y43591D01*
X9900Y44361D01*
X6883Y44930D01*
X3832Y45290D01*
X767Y45445D01*
X-2301Y45394D01*
X-5361Y45135D01*
X-8397Y44670D01*
X-11391Y44002D01*
X-14338Y43131D01*
X-17216Y42067D01*
X-20017Y40807D01*
X-22727Y39364D01*
X-25331Y37739D01*
X-27823Y35943D01*
X-30185Y33982D01*
X-32410Y31866D01*
X-34488Y29606D01*
X-36408Y27211D01*
X-38160Y24691D01*
X-39740Y22057D01*
X-41140Y19324D01*
X-42351Y16504D01*
X-43367Y13606D01*
X-44188Y10647D01*
X-44805Y7640D01*
X-45219Y4597D01*
X-45427Y1534D01*
X-45427Y-1534D01*
X-45219Y-4597D01*
X-44805Y-7640D01*
X-44188Y-10647D01*
X-43367Y-13606D01*
X-42351Y-16504D01*
X-41140Y-19324D01*
X-39740Y-22057D01*
X-38160Y-24691D01*
X-36408Y-27211D01*
X-34488Y-29606D01*
X-32410Y-31866D01*
X-30185Y-33982D01*
X-27823Y-35943D01*
X-25331Y-37739D01*
X-22727Y-39364D01*
X-20017Y-40807D01*
X-17216Y-42067D01*
X-14338Y-43131D01*
X-11391Y-44002D01*
X-8397Y-44670D01*
X-5361Y-45135D01*
X-2301Y-45394D01*
G37*
G36*
X2221654Y-4645D02*
G01*
X2225034Y-4594D01*
X2228408Y-4338D01*
X2231758Y-3876D01*
X2235075Y-3208D01*
X2238344Y-2341D01*
X2241555Y-1277D01*
X2244694Y-17D01*
X2247750Y1430D01*
X2250714Y3060D01*
X2253571Y4869D01*
X2256312Y6847D01*
X2258931Y8991D01*
X2261410Y11290D01*
X2263747Y13736D01*
X2265931Y16319D01*
X2267950Y19032D01*
X2269804Y21861D01*
X2271478Y24800D01*
X2272974Y27833D01*
X2274280Y30952D01*
X2275392Y34147D01*
X2276309Y37404D01*
X2277026Y40708D01*
X2277541Y44051D01*
X2277849Y47419D01*
X2277953Y50800D01*
X2277849Y54180D01*
X2277541Y57548D01*
X2277026Y60891D01*
X2276309Y64195D01*
X2275392Y67452D01*
X2274280Y70647D01*
X2272974Y73766D01*
X2271478Y76799D01*
X2269804Y79738D01*
X2267950Y82567D01*
X2265931Y85280D01*
X2263747Y87863D01*
X2261410Y90309D01*
X2258931Y92608D01*
X2256312Y94752D01*
X2253571Y96730D01*
X2250714Y98539D01*
X2247750Y100169D01*
X2244694Y101617D01*
X2241555Y102877D01*
X2238344Y103941D01*
X2235075Y104808D01*
X2231758Y105476D01*
X2228408Y105938D01*
X2225034Y106194D01*
X2221654Y106245D01*
X2218275Y106093D01*
X2214913Y105732D01*
X2211577Y105166D01*
X2208283Y104399D01*
X2205042Y103433D01*
X2201865Y102270D01*
X2198766Y100916D01*
X2195756Y99377D01*
X2192842Y97657D01*
X2190041Y95763D01*
X2187361Y93700D01*
X2184811Y91478D01*
X2182401Y89103D01*
X2180140Y86588D01*
X2178037Y83939D01*
X2176101Y81168D01*
X2174336Y78282D01*
X2172749Y75295D01*
X2171349Y72217D01*
X2170137Y69057D01*
X2169121Y65831D01*
X2168306Y62550D01*
X2167689Y59225D01*
X2167277Y55867D01*
X2167072Y52491D01*
X2167072Y49108D01*
X2167277Y45732D01*
X2167689Y42374D01*
X2168306Y39049D01*
X2169121Y35768D01*
X2170137Y32542D01*
X2171349Y29382D01*
X2172749Y26304D01*
X2174336Y23317D01*
X2176101Y20431D01*
X2178037Y17660D01*
X2180140Y15011D01*
X2182401Y12496D01*
X2184811Y10121D01*
X2187361Y7899D01*
X2190041Y5836D01*
X2192842Y3942D01*
X2195756Y2222D01*
X2198766Y683D01*
X2201865Y-670D01*
X2205042Y-1833D01*
X2208283Y-2799D01*
X2211577Y-3566D01*
X2214913Y-4132D01*
X2218275Y-4493D01*
G37*
G36*
X877067Y30754D02*
G01*
X880132Y30909D01*
X883183Y31269D01*
X886200Y31838D01*
X889172Y32608D01*
X892086Y33576D01*
X894928Y34739D01*
X897684Y36090D01*
X900343Y37627D01*
X902891Y39336D01*
X905319Y41216D01*
X907615Y43256D01*
X909769Y45445D01*
X911768Y47774D01*
X913607Y50233D01*
X915273Y52811D01*
X916764Y55496D01*
X918070Y58275D01*
X919185Y61135D01*
X920104Y64066D01*
X920823Y67050D01*
X921339Y70076D01*
X921649Y73131D01*
X921753Y76200D01*
X921649Y79268D01*
X921339Y82323D01*
X920823Y85349D01*
X920104Y88333D01*
X919185Y91264D01*
X918070Y94124D01*
X916764Y96903D01*
X915273Y99588D01*
X913607Y102166D01*
X911768Y104625D01*
X909769Y106954D01*
X907615Y109143D01*
X905319Y111183D01*
X902891Y113063D01*
X900343Y114772D01*
X897684Y116309D01*
X894928Y117660D01*
X892086Y118823D01*
X889172Y119791D01*
X886200Y120561D01*
X883183Y121130D01*
X880132Y121490D01*
X877067Y121645D01*
X873998Y121594D01*
X870938Y121335D01*
X867902Y120870D01*
X864908Y120202D01*
X861961Y119331D01*
X859083Y118267D01*
X856282Y117007D01*
X853572Y115564D01*
X850968Y113939D01*
X848476Y112143D01*
X846114Y110182D01*
X843889Y108066D01*
X841811Y105806D01*
X839891Y103411D01*
X838139Y100891D01*
X836559Y98257D01*
X835159Y95524D01*
X833948Y92704D01*
X832932Y89806D01*
X832111Y86847D01*
X831494Y83840D01*
X831080Y80797D01*
X830872Y77734D01*
X830872Y74665D01*
X831080Y71602D01*
X831494Y68559D01*
X832111Y65552D01*
X832932Y62593D01*
X833948Y59695D01*
X835159Y56875D01*
X836559Y54142D01*
X838139Y51508D01*
X839891Y48988D01*
X841811Y46593D01*
X843889Y44333D01*
X846114Y42217D01*
X848476Y40256D01*
X850968Y38460D01*
X853572Y36835D01*
X856282Y35392D01*
X859083Y34132D01*
X861961Y33068D01*
X864908Y32197D01*
X867902Y31529D01*
X870938Y31064D01*
X873998Y30805D01*
G37*
G36*
X1181867Y56154D02*
G01*
X1184932Y56309D01*
X1187983Y56669D01*
X1191000Y57238D01*
X1193972Y58008D01*
X1196886Y58976D01*
X1199728Y60139D01*
X1202484Y61490D01*
X1205143Y63027D01*
X1207691Y64736D01*
X1210119Y66616D01*
X1212415Y68656D01*
X1214569Y70845D01*
X1216568Y73174D01*
X1218407Y75633D01*
X1220073Y78211D01*
X1221564Y80896D01*
X1222870Y83675D01*
X1223985Y86535D01*
X1224904Y89466D01*
X1225623Y92450D01*
X1226139Y95476D01*
X1226449Y98531D01*
X1226553Y101600D01*
X1226449Y104668D01*
X1226139Y107723D01*
X1225623Y110749D01*
X1224904Y113733D01*
X1223985Y116664D01*
X1222870Y119524D01*
X1221564Y122303D01*
X1220073Y124988D01*
X1218407Y127566D01*
X1216568Y130025D01*
X1214569Y132354D01*
X1212415Y134543D01*
X1210119Y136583D01*
X1207691Y138463D01*
X1205143Y140172D01*
X1202484Y141709D01*
X1199728Y143060D01*
X1196886Y144223D01*
X1193972Y145191D01*
X1191000Y145961D01*
X1187983Y146530D01*
X1184932Y146890D01*
X1181867Y147045D01*
X1178798Y146994D01*
X1175738Y146735D01*
X1172702Y146270D01*
X1169708Y145602D01*
X1166761Y144731D01*
X1163883Y143667D01*
X1161082Y142407D01*
X1158372Y140964D01*
X1155768Y139339D01*
X1153276Y137543D01*
X1150914Y135582D01*
X1148689Y133466D01*
X1146611Y131206D01*
X1144691Y128811D01*
X1142939Y126291D01*
X1141359Y123657D01*
X1139959Y120924D01*
X1138748Y118104D01*
X1137732Y115206D01*
X1136911Y112247D01*
X1136294Y109240D01*
X1135880Y106197D01*
X1135672Y103134D01*
X1135672Y100065D01*
X1135880Y97002D01*
X1136294Y93959D01*
X1136911Y90952D01*
X1137732Y87993D01*
X1138748Y85095D01*
X1139959Y82275D01*
X1141359Y79542D01*
X1142939Y76908D01*
X1144691Y74388D01*
X1146611Y71993D01*
X1148689Y69733D01*
X1150914Y67617D01*
X1153276Y65656D01*
X1155768Y63860D01*
X1158372Y62235D01*
X1161082Y60792D01*
X1163883Y59532D01*
X1166761Y58468D01*
X1169708Y57597D01*
X1172702Y56929D01*
X1175738Y56464D01*
X1178798Y56205D01*
G37*
G36*
X1016767Y56154D02*
G01*
X1019832Y56309D01*
X1022883Y56669D01*
X1025900Y57238D01*
X1028872Y58008D01*
X1031786Y58976D01*
X1034628Y60139D01*
X1037384Y61490D01*
X1040043Y63027D01*
X1042591Y64736D01*
X1045019Y66616D01*
X1047315Y68656D01*
X1049469Y70845D01*
X1051468Y73174D01*
X1053307Y75633D01*
X1054973Y78211D01*
X1056464Y80896D01*
X1057770Y83675D01*
X1058885Y86535D01*
X1059804Y89466D01*
X1060523Y92450D01*
X1061039Y95476D01*
X1061349Y98531D01*
X1061453Y101600D01*
X1061349Y104668D01*
X1061039Y107723D01*
X1060523Y110749D01*
X1059804Y113733D01*
X1058885Y116664D01*
X1057770Y119524D01*
X1056464Y122303D01*
X1054973Y124988D01*
X1053307Y127566D01*
X1051468Y130025D01*
X1049469Y132354D01*
X1047315Y134543D01*
X1045019Y136583D01*
X1042591Y138463D01*
X1040043Y140172D01*
X1037384Y141709D01*
X1034628Y143060D01*
X1031786Y144223D01*
X1028872Y145191D01*
X1025900Y145961D01*
X1022883Y146530D01*
X1019832Y146890D01*
X1016767Y147045D01*
X1013698Y146994D01*
X1010638Y146735D01*
X1007602Y146270D01*
X1004608Y145602D01*
X1001661Y144731D01*
X998783Y143667D01*
X995982Y142407D01*
X993272Y140964D01*
X990668Y139339D01*
X988176Y137543D01*
X985814Y135582D01*
X983589Y133466D01*
X981511Y131206D01*
X979591Y128811D01*
X977839Y126291D01*
X976259Y123657D01*
X974859Y120924D01*
X973648Y118104D01*
X972632Y115206D01*
X971811Y112247D01*
X971194Y109240D01*
X970780Y106197D01*
X970572Y103134D01*
X970572Y100065D01*
X970780Y97002D01*
X971194Y93959D01*
X971811Y90952D01*
X972632Y87993D01*
X973648Y85095D01*
X974859Y82275D01*
X976259Y79542D01*
X977839Y76908D01*
X979591Y74388D01*
X981511Y71993D01*
X983589Y69733D01*
X985814Y67617D01*
X988176Y65656D01*
X990668Y63860D01*
X993272Y62235D01*
X995982Y60792D01*
X998783Y59532D01*
X1001661Y58468D01*
X1004608Y57597D01*
X1007602Y56929D01*
X1010638Y56464D01*
X1013698Y56205D01*
G37*
G36*
X-37332Y68854D02*
G01*
X-34267Y69009D01*
X-31216Y69369D01*
X-28199Y69938D01*
X-25227Y70708D01*
X-22313Y71676D01*
X-19471Y72839D01*
X-16715Y74190D01*
X-14056Y75727D01*
X-11508Y77436D01*
X-9080Y79316D01*
X-6784Y81356D01*
X-4630Y83545D01*
X-2631Y85874D01*
X-792Y88333D01*
X873Y90911D01*
X2364Y93596D01*
X3670Y96375D01*
X4785Y99235D01*
X5704Y102166D01*
X6423Y105150D01*
X6939Y108176D01*
X7249Y111231D01*
X7353Y114300D01*
X7249Y117368D01*
X6939Y120423D01*
X6423Y123449D01*
X5704Y126433D01*
X4785Y129364D01*
X3670Y132224D01*
X2364Y135003D01*
X873Y137688D01*
X-792Y140266D01*
X-2631Y142725D01*
X-4630Y145054D01*
X-6784Y147243D01*
X-9080Y149283D01*
X-11508Y151163D01*
X-14056Y152872D01*
X-16715Y154409D01*
X-19471Y155760D01*
X-22313Y156923D01*
X-25227Y157891D01*
X-28199Y158661D01*
X-31216Y159230D01*
X-34267Y159590D01*
X-37332Y159745D01*
X-40401Y159694D01*
X-43461Y159435D01*
X-46497Y158970D01*
X-49491Y158302D01*
X-52438Y157431D01*
X-55316Y156367D01*
X-58117Y155107D01*
X-60827Y153664D01*
X-63431Y152039D01*
X-65923Y150243D01*
X-68285Y148282D01*
X-70510Y146166D01*
X-72588Y143906D01*
X-74508Y141511D01*
X-76260Y138991D01*
X-77840Y136357D01*
X-79240Y133624D01*
X-80451Y130804D01*
X-81467Y127906D01*
X-82288Y124947D01*
X-82905Y121940D01*
X-83319Y118897D01*
X-83527Y115834D01*
X-83527Y112765D01*
X-83319Y109702D01*
X-82905Y106659D01*
X-82288Y103652D01*
X-81467Y100693D01*
X-80451Y97795D01*
X-79240Y94975D01*
X-77840Y92242D01*
X-76260Y89608D01*
X-74508Y87088D01*
X-72588Y84693D01*
X-70510Y82433D01*
X-68285Y80317D01*
X-65923Y78356D01*
X-63431Y76560D01*
X-60827Y74935D01*
X-58117Y73492D01*
X-55316Y72232D01*
X-52438Y71168D01*
X-49491Y70297D01*
X-46497Y69629D01*
X-43461Y69164D01*
X-40401Y68905D01*
G37*
G36*
X216667Y68854D02*
G01*
X219732Y69009D01*
X222783Y69369D01*
X225800Y69938D01*
X228772Y70708D01*
X231686Y71676D01*
X234528Y72839D01*
X237284Y74190D01*
X239943Y75727D01*
X242491Y77436D01*
X244919Y79316D01*
X247215Y81356D01*
X249369Y83545D01*
X251368Y85874D01*
X253207Y88333D01*
X254873Y90911D01*
X256364Y93596D01*
X257670Y96375D01*
X258785Y99235D01*
X259704Y102166D01*
X260423Y105150D01*
X260939Y108176D01*
X261249Y111231D01*
X261353Y114300D01*
X261249Y117368D01*
X260939Y120423D01*
X260423Y123449D01*
X259704Y126433D01*
X258785Y129364D01*
X257670Y132224D01*
X256364Y135003D01*
X254873Y137688D01*
X253207Y140266D01*
X251368Y142725D01*
X249369Y145054D01*
X247215Y147243D01*
X244919Y149283D01*
X242491Y151163D01*
X240647Y152400D01*
X242491Y153636D01*
X244919Y155516D01*
X247215Y157556D01*
X249369Y159745D01*
X251368Y162074D01*
X253207Y164533D01*
X254873Y167111D01*
X256364Y169796D01*
X257670Y172575D01*
X258785Y175435D01*
X259704Y178366D01*
X260423Y181350D01*
X260939Y184376D01*
X261249Y187431D01*
X261353Y190500D01*
X261249Y193568D01*
X260939Y196623D01*
X260423Y199649D01*
X259704Y202633D01*
X258785Y205564D01*
X257670Y208424D01*
X256364Y211203D01*
X254873Y213888D01*
X253207Y216466D01*
X251368Y218925D01*
X249369Y221254D01*
X247215Y223443D01*
X244919Y225483D01*
X242491Y227363D01*
X239943Y229072D01*
X237284Y230609D01*
X234528Y231960D01*
X231686Y233123D01*
X228772Y234091D01*
X225800Y234861D01*
X222783Y235430D01*
X219732Y235790D01*
X216667Y235945D01*
X213598Y235894D01*
X210538Y235635D01*
X207502Y235170D01*
X204508Y234502D01*
X201561Y233631D01*
X198683Y232567D01*
X195882Y231307D01*
X193172Y229864D01*
X190568Y228239D01*
X188076Y226443D01*
X185714Y224482D01*
X183489Y222366D01*
X181411Y220106D01*
X179491Y217711D01*
X177739Y215191D01*
X176159Y212557D01*
X174759Y209824D01*
X173548Y207004D01*
X172532Y204106D01*
X171711Y201147D01*
X171094Y198140D01*
X170680Y195097D01*
X170472Y192034D01*
X170472Y188965D01*
X170680Y185902D01*
X171094Y182859D01*
X171711Y179852D01*
X172532Y176893D01*
X173548Y173995D01*
X174759Y171175D01*
X176159Y168442D01*
X177739Y165808D01*
X179491Y163288D01*
X181411Y160893D01*
X183489Y158633D01*
X185714Y156517D01*
X188076Y154556D01*
X190568Y152760D01*
X191145Y152400D01*
X190568Y152039D01*
X188076Y150243D01*
X185714Y148282D01*
X183489Y146166D01*
X181411Y143906D01*
X179491Y141511D01*
X177739Y138991D01*
X176159Y136357D01*
X174759Y133624D01*
X173548Y130804D01*
X172532Y127906D01*
X171711Y124947D01*
X171094Y121940D01*
X170680Y118897D01*
X170472Y115834D01*
X170472Y112765D01*
X170680Y109702D01*
X171094Y106659D01*
X171711Y103652D01*
X172532Y100693D01*
X173548Y97795D01*
X174759Y94975D01*
X176159Y92242D01*
X177739Y89608D01*
X179491Y87088D01*
X181411Y84693D01*
X183489Y82433D01*
X185714Y80317D01*
X188076Y78356D01*
X190568Y76560D01*
X193172Y74935D01*
X195882Y73492D01*
X198683Y72232D01*
X201561Y71168D01*
X204508Y70297D01*
X207502Y69629D01*
X210538Y69164D01*
X213598Y68905D01*
G37*
G36*
X2221654Y109654D02*
G01*
X2225034Y109705D01*
X2228408Y109961D01*
X2231758Y110423D01*
X2235075Y111091D01*
X2238344Y111958D01*
X2241555Y113022D01*
X2244694Y114282D01*
X2247750Y115730D01*
X2250714Y117360D01*
X2253571Y119169D01*
X2256312Y121147D01*
X2258931Y123291D01*
X2261410Y125590D01*
X2263747Y128036D01*
X2265931Y130619D01*
X2267950Y133332D01*
X2269804Y136161D01*
X2271478Y139100D01*
X2272974Y142133D01*
X2274280Y145252D01*
X2275392Y148447D01*
X2276309Y151704D01*
X2277026Y155008D01*
X2277541Y158351D01*
X2277849Y161719D01*
X2277953Y165100D01*
X2277849Y168480D01*
X2277541Y171848D01*
X2277026Y175191D01*
X2276309Y178495D01*
X2275392Y181752D01*
X2274280Y184947D01*
X2272974Y188066D01*
X2271478Y191099D01*
X2269804Y194038D01*
X2267950Y196867D01*
X2265931Y199580D01*
X2263747Y202163D01*
X2261410Y204609D01*
X2258931Y206908D01*
X2256312Y209052D01*
X2253571Y211030D01*
X2250714Y212839D01*
X2247750Y214469D01*
X2244694Y215917D01*
X2241555Y217177D01*
X2238344Y218241D01*
X2235075Y219108D01*
X2231758Y219776D01*
X2228408Y220238D01*
X2225034Y220494D01*
X2221654Y220545D01*
X2218275Y220393D01*
X2214913Y220032D01*
X2211577Y219466D01*
X2208283Y218699D01*
X2205042Y217733D01*
X2201865Y216570D01*
X2198766Y215216D01*
X2195756Y213677D01*
X2192842Y211957D01*
X2190041Y210063D01*
X2187361Y208000D01*
X2184811Y205778D01*
X2182401Y203403D01*
X2180140Y200888D01*
X2178037Y198239D01*
X2176101Y195468D01*
X2174336Y192582D01*
X2172749Y189595D01*
X2171349Y186517D01*
X2170137Y183357D01*
X2169121Y180131D01*
X2168306Y176850D01*
X2167689Y173525D01*
X2167277Y170167D01*
X2167072Y166791D01*
X2167072Y163408D01*
X2167277Y160032D01*
X2167689Y156674D01*
X2168306Y153349D01*
X2169121Y150068D01*
X2170137Y146842D01*
X2171349Y143682D01*
X2172749Y140604D01*
X2174336Y137617D01*
X2176101Y134731D01*
X2178037Y131960D01*
X2180140Y129311D01*
X2182401Y126796D01*
X2184811Y124421D01*
X2187361Y122199D01*
X2190041Y120136D01*
X2192842Y118242D01*
X2195756Y116522D01*
X2198766Y114983D01*
X2201865Y113629D01*
X2205042Y112466D01*
X2208283Y111500D01*
X2211577Y110733D01*
X2214913Y110167D01*
X2218275Y109806D01*
G37*
G36*
X496067Y183154D02*
G01*
X499132Y183309D01*
X502183Y183669D01*
X505200Y184238D01*
X508172Y185008D01*
X511086Y185976D01*
X513928Y187139D01*
X516684Y188490D01*
X519343Y190027D01*
X521891Y191736D01*
X524319Y193616D01*
X526615Y195656D01*
X528769Y197845D01*
X530768Y200174D01*
X532607Y202633D01*
X534273Y205211D01*
X535764Y207896D01*
X537070Y210675D01*
X538185Y213535D01*
X539104Y216466D01*
X539823Y219450D01*
X540339Y222476D01*
X540649Y225531D01*
X540753Y228600D01*
X540649Y231668D01*
X540339Y234723D01*
X539823Y237749D01*
X539104Y240733D01*
X538185Y243664D01*
X537070Y246524D01*
X535764Y249303D01*
X534273Y251988D01*
X532607Y254566D01*
X530768Y257025D01*
X528769Y259354D01*
X526615Y261543D01*
X524319Y263583D01*
X521891Y265463D01*
X519343Y267172D01*
X516684Y268709D01*
X513928Y270060D01*
X511086Y271223D01*
X508172Y272191D01*
X505200Y272961D01*
X502183Y273530D01*
X499132Y273890D01*
X496067Y274045D01*
X492998Y273994D01*
X489938Y273735D01*
X486902Y273270D01*
X483908Y272602D01*
X480961Y271731D01*
X478083Y270667D01*
X475282Y269407D01*
X472572Y267964D01*
X469968Y266339D01*
X467476Y264543D01*
X465114Y262582D01*
X462889Y260466D01*
X460811Y258206D01*
X458891Y255811D01*
X457139Y253291D01*
X455559Y250657D01*
X454159Y247924D01*
X452948Y245104D01*
X451932Y242206D01*
X451111Y239247D01*
X450494Y236240D01*
X450080Y233197D01*
X449872Y230134D01*
X449872Y227065D01*
X450080Y224002D01*
X450494Y220959D01*
X451111Y217952D01*
X451932Y214993D01*
X452948Y212095D01*
X454159Y209275D01*
X455559Y206542D01*
X457139Y203908D01*
X458891Y201388D01*
X460811Y198993D01*
X462889Y196733D01*
X465114Y194617D01*
X467476Y192656D01*
X469968Y190860D01*
X472572Y189235D01*
X475282Y187792D01*
X478083Y186532D01*
X480961Y185468D01*
X483908Y184597D01*
X486902Y183929D01*
X489938Y183464D01*
X492998Y183205D01*
G37*
G36*
X2221654Y223954D02*
G01*
X2225034Y224005D01*
X2228408Y224261D01*
X2231758Y224723D01*
X2235075Y225391D01*
X2238344Y226258D01*
X2241555Y227322D01*
X2244694Y228582D01*
X2247750Y230030D01*
X2250714Y231660D01*
X2253571Y233469D01*
X2256312Y235447D01*
X2258931Y237591D01*
X2261410Y239890D01*
X2263747Y242336D01*
X2265931Y244919D01*
X2267950Y247632D01*
X2269804Y250461D01*
X2271478Y253400D01*
X2272974Y256433D01*
X2274280Y259552D01*
X2275392Y262747D01*
X2276309Y266004D01*
X2277026Y269308D01*
X2277541Y272651D01*
X2277849Y276019D01*
X2277953Y279400D01*
X2277849Y282780D01*
X2277541Y286148D01*
X2277026Y289491D01*
X2276309Y292795D01*
X2275392Y296052D01*
X2274280Y299247D01*
X2272974Y302366D01*
X2271478Y305399D01*
X2269804Y308338D01*
X2267950Y311167D01*
X2265931Y313880D01*
X2263747Y316463D01*
X2261410Y318909D01*
X2258931Y321208D01*
X2256312Y323352D01*
X2253571Y325330D01*
X2250714Y327139D01*
X2247750Y328769D01*
X2244694Y330217D01*
X2241555Y331477D01*
X2238344Y332541D01*
X2235075Y333408D01*
X2231758Y334076D01*
X2228408Y334538D01*
X2225034Y334794D01*
X2221654Y334845D01*
X2218275Y334693D01*
X2214913Y334332D01*
X2211577Y333766D01*
X2208283Y332999D01*
X2205042Y332033D01*
X2201865Y330870D01*
X2198766Y329516D01*
X2195756Y327977D01*
X2192842Y326257D01*
X2190041Y324363D01*
X2187361Y322300D01*
X2184811Y320078D01*
X2182401Y317703D01*
X2180140Y315188D01*
X2178037Y312539D01*
X2176101Y309768D01*
X2174336Y306882D01*
X2172749Y303895D01*
X2171349Y300817D01*
X2170137Y297657D01*
X2169121Y294431D01*
X2168306Y291150D01*
X2167689Y287825D01*
X2167277Y284467D01*
X2167072Y281091D01*
X2167072Y277708D01*
X2167277Y274332D01*
X2167689Y270974D01*
X2168306Y267649D01*
X2169121Y264368D01*
X2170137Y261142D01*
X2171349Y257982D01*
X2172749Y254904D01*
X2174336Y251917D01*
X2176101Y249031D01*
X2178037Y246260D01*
X2180140Y243611D01*
X2182401Y241096D01*
X2184811Y238721D01*
X2187361Y236499D01*
X2190041Y234436D01*
X2192842Y232542D01*
X2195756Y230822D01*
X2198766Y229283D01*
X2201865Y227929D01*
X2205042Y226766D01*
X2208283Y225800D01*
X2211577Y225033D01*
X2214913Y224467D01*
X2218275Y224106D01*
G37*
G36*
X102367Y248754D02*
G01*
X105432Y248909D01*
X108483Y249270D01*
X111500Y249839D01*
X114472Y250609D01*
X117386Y251576D01*
X120228Y252740D01*
X122984Y254091D01*
X125643Y255628D01*
X128191Y257337D01*
X130619Y259217D01*
X132915Y261256D01*
X135069Y263446D01*
X137068Y265775D01*
X138907Y268234D01*
X140573Y270812D01*
X142064Y273497D01*
X143370Y276275D01*
X144485Y279135D01*
X145404Y282067D01*
X146123Y285051D01*
X146639Y288076D01*
X146949Y291132D01*
X147053Y294200D01*
X146949Y297268D01*
X146639Y300324D01*
X146123Y303349D01*
X145404Y306334D01*
X144485Y309265D01*
X143370Y312125D01*
X142064Y314904D01*
X140573Y317588D01*
X138907Y320167D01*
X137068Y322625D01*
X135069Y324954D01*
X132915Y327144D01*
X130619Y329184D01*
X128191Y331063D01*
X127911Y331249D01*
X128191Y331436D01*
X130619Y333316D01*
X132915Y335356D01*
X135069Y337545D01*
X137068Y339874D01*
X138907Y342333D01*
X140573Y344911D01*
X142064Y347596D01*
X143370Y350375D01*
X144485Y353235D01*
X145404Y356166D01*
X146123Y359150D01*
X146639Y362176D01*
X146949Y365231D01*
X147053Y368300D01*
X146949Y371368D01*
X146639Y374423D01*
X146123Y377449D01*
X145404Y380433D01*
X144485Y383364D01*
X143370Y386224D01*
X142064Y389003D01*
X140573Y391688D01*
X138907Y394266D01*
X137068Y396725D01*
X135069Y399054D01*
X132915Y401243D01*
X130619Y403283D01*
X128191Y405163D01*
X125643Y406872D01*
X122984Y408409D01*
X120228Y409760D01*
X117386Y410923D01*
X114472Y411891D01*
X111500Y412661D01*
X108483Y413230D01*
X105432Y413590D01*
X102367Y413745D01*
X99298Y413694D01*
X96238Y413435D01*
X93202Y412970D01*
X90208Y412302D01*
X87261Y411431D01*
X84383Y410367D01*
X81582Y409107D01*
X78872Y407664D01*
X76268Y406039D01*
X73776Y404243D01*
X71414Y402282D01*
X69189Y400166D01*
X67111Y397906D01*
X65191Y395511D01*
X63439Y392991D01*
X61859Y390357D01*
X60459Y387624D01*
X59248Y384804D01*
X58232Y381906D01*
X57411Y378947D01*
X56794Y375940D01*
X56380Y372897D01*
X56172Y369834D01*
X56172Y366765D01*
X56380Y363702D01*
X56794Y360659D01*
X57411Y357652D01*
X58232Y354693D01*
X59248Y351795D01*
X60459Y348975D01*
X61859Y346242D01*
X63439Y343608D01*
X65191Y341088D01*
X67111Y338693D01*
X69189Y336433D01*
X71414Y334317D01*
X73776Y332356D01*
X75311Y331249D01*
X73776Y330144D01*
X71414Y328183D01*
X69189Y326067D01*
X67111Y323806D01*
X65191Y321411D01*
X63439Y318891D01*
X61859Y316257D01*
X60459Y313524D01*
X59248Y310705D01*
X58232Y307807D01*
X57411Y304848D01*
X56794Y301840D01*
X56380Y298797D01*
X56172Y295734D01*
X56172Y292666D01*
X56380Y289603D01*
X56794Y286560D01*
X57411Y283552D01*
X58232Y280593D01*
X59248Y277695D01*
X60459Y274876D01*
X61859Y272143D01*
X63439Y269509D01*
X65191Y266989D01*
X67111Y264594D01*
X69189Y262333D01*
X71414Y260217D01*
X73776Y258257D01*
X76268Y256461D01*
X78872Y254835D01*
X81582Y253392D01*
X84383Y252133D01*
X87261Y251068D01*
X90208Y250197D01*
X93202Y249529D01*
X96238Y249064D01*
X99298Y248805D01*
G37*
G36*
X203967Y297454D02*
G01*
X207032Y297609D01*
X210083Y297969D01*
X213100Y298538D01*
X216072Y299308D01*
X218986Y300276D01*
X221828Y301439D01*
X224584Y302790D01*
X227243Y304327D01*
X229791Y306036D01*
X232219Y307916D01*
X234515Y309956D01*
X236669Y312145D01*
X238668Y314474D01*
X240507Y316933D01*
X242173Y319511D01*
X243664Y322196D01*
X244970Y324975D01*
X246085Y327835D01*
X247004Y330766D01*
X247723Y333750D01*
X248239Y336776D01*
X248549Y339831D01*
X248653Y342900D01*
X248549Y345968D01*
X248239Y349023D01*
X247723Y352049D01*
X247004Y355033D01*
X246085Y357964D01*
X244970Y360824D01*
X243664Y363603D01*
X242173Y366288D01*
X240507Y368866D01*
X238668Y371325D01*
X236669Y373654D01*
X234515Y375843D01*
X232219Y377883D01*
X229791Y379763D01*
X227243Y381472D01*
X224584Y383009D01*
X221828Y384360D01*
X218986Y385523D01*
X216072Y386491D01*
X213100Y387261D01*
X210083Y387830D01*
X207032Y388190D01*
X203967Y388345D01*
X200898Y388294D01*
X197838Y388035D01*
X194802Y387570D01*
X191808Y386902D01*
X188861Y386031D01*
X185983Y384967D01*
X183182Y383707D01*
X180472Y382264D01*
X177868Y380639D01*
X175376Y378843D01*
X173014Y376882D01*
X170789Y374766D01*
X168711Y372506D01*
X166791Y370111D01*
X165039Y367591D01*
X163459Y364957D01*
X162059Y362224D01*
X160848Y359404D01*
X159832Y356506D01*
X159011Y353547D01*
X158394Y350540D01*
X157980Y347497D01*
X157772Y344434D01*
X157772Y341365D01*
X157980Y338302D01*
X158394Y335259D01*
X159011Y332252D01*
X159832Y329293D01*
X160848Y326395D01*
X162059Y323575D01*
X163459Y320842D01*
X165039Y318208D01*
X166791Y315688D01*
X168711Y313293D01*
X170789Y311033D01*
X173014Y308917D01*
X175376Y306956D01*
X177868Y305160D01*
X180472Y303535D01*
X183182Y302092D01*
X185983Y300832D01*
X188861Y299768D01*
X191808Y298897D01*
X194802Y298229D01*
X197838Y297764D01*
X200898Y297505D01*
G37*
G36*
X1169167Y310154D02*
G01*
X1172232Y310309D01*
X1175283Y310669D01*
X1178300Y311238D01*
X1181272Y312008D01*
X1184186Y312976D01*
X1187028Y314139D01*
X1189784Y315490D01*
X1192443Y317027D01*
X1194991Y318736D01*
X1197419Y320616D01*
X1199715Y322656D01*
X1201869Y324845D01*
X1203868Y327174D01*
X1205707Y329633D01*
X1207373Y332211D01*
X1208864Y334896D01*
X1210170Y337675D01*
X1211285Y340535D01*
X1212204Y343466D01*
X1212923Y346450D01*
X1213439Y349476D01*
X1213749Y352531D01*
X1213853Y355600D01*
X1213749Y358668D01*
X1213439Y361723D01*
X1212923Y364749D01*
X1212204Y367733D01*
X1211285Y370664D01*
X1210170Y373524D01*
X1208864Y376303D01*
X1207373Y378988D01*
X1205707Y381566D01*
X1203868Y384025D01*
X1201869Y386354D01*
X1199715Y388543D01*
X1197419Y390583D01*
X1194991Y392463D01*
X1192443Y394172D01*
X1189784Y395709D01*
X1187028Y397060D01*
X1184186Y398223D01*
X1181272Y399191D01*
X1178300Y399961D01*
X1175283Y400530D01*
X1172232Y400890D01*
X1169167Y401045D01*
X1166098Y400994D01*
X1163038Y400735D01*
X1160002Y400270D01*
X1157008Y399602D01*
X1154061Y398731D01*
X1151183Y397667D01*
X1148382Y396407D01*
X1145672Y394964D01*
X1143068Y393339D01*
X1140576Y391543D01*
X1138214Y389582D01*
X1135989Y387466D01*
X1133911Y385206D01*
X1131991Y382811D01*
X1130239Y380291D01*
X1128659Y377657D01*
X1127259Y374924D01*
X1126048Y372104D01*
X1125032Y369206D01*
X1124211Y366247D01*
X1123594Y363240D01*
X1123180Y360197D01*
X1122972Y357134D01*
X1122972Y354065D01*
X1123180Y351002D01*
X1123594Y347959D01*
X1124211Y344952D01*
X1125032Y341993D01*
X1126048Y339095D01*
X1127259Y336275D01*
X1128659Y333542D01*
X1130239Y330908D01*
X1131991Y328388D01*
X1133911Y325993D01*
X1135989Y323733D01*
X1138214Y321617D01*
X1140576Y319656D01*
X1143068Y317860D01*
X1145672Y316235D01*
X1148382Y314792D01*
X1151183Y313532D01*
X1154061Y312468D01*
X1157008Y311597D01*
X1160002Y310929D01*
X1163038Y310464D01*
X1166098Y310205D01*
G37*
G36*
X1867667Y322854D02*
G01*
X1870732Y323009D01*
X1873783Y323369D01*
X1876800Y323938D01*
X1879772Y324708D01*
X1882686Y325676D01*
X1885528Y326839D01*
X1888284Y328190D01*
X1890943Y329727D01*
X1893491Y331436D01*
X1895919Y333316D01*
X1898215Y335356D01*
X1900369Y337545D01*
X1902368Y339874D01*
X1904207Y342333D01*
X1905873Y344911D01*
X1907364Y347596D01*
X1908670Y350375D01*
X1909785Y353235D01*
X1910704Y356166D01*
X1911423Y359150D01*
X1911939Y362176D01*
X1912249Y365231D01*
X1912353Y368300D01*
X1912249Y371368D01*
X1911939Y374423D01*
X1911423Y377449D01*
X1910704Y380433D01*
X1909785Y383364D01*
X1908670Y386224D01*
X1907364Y389003D01*
X1905873Y391688D01*
X1904207Y394266D01*
X1902368Y396725D01*
X1900369Y399054D01*
X1898215Y401243D01*
X1895919Y403283D01*
X1893491Y405163D01*
X1890943Y406872D01*
X1888284Y408409D01*
X1885528Y409760D01*
X1882686Y410923D01*
X1879772Y411891D01*
X1876800Y412661D01*
X1873783Y413230D01*
X1870732Y413590D01*
X1867667Y413745D01*
X1864598Y413694D01*
X1861538Y413435D01*
X1858502Y412970D01*
X1855508Y412302D01*
X1852561Y411431D01*
X1849683Y410367D01*
X1846882Y409107D01*
X1844172Y407664D01*
X1841568Y406039D01*
X1839076Y404243D01*
X1836714Y402282D01*
X1834489Y400166D01*
X1832411Y397906D01*
X1830491Y395511D01*
X1828739Y392991D01*
X1827159Y390357D01*
X1825759Y387624D01*
X1824548Y384804D01*
X1823532Y381906D01*
X1822711Y378947D01*
X1822094Y375940D01*
X1821680Y372897D01*
X1821472Y369834D01*
X1821472Y366765D01*
X1821680Y363702D01*
X1822094Y360659D01*
X1822711Y357652D01*
X1823532Y354693D01*
X1824548Y351795D01*
X1825759Y348975D01*
X1827159Y346242D01*
X1828739Y343608D01*
X1830491Y341088D01*
X1832411Y338693D01*
X1834489Y336433D01*
X1836714Y334317D01*
X1839076Y332356D01*
X1841568Y330560D01*
X1844172Y328935D01*
X1846882Y327492D01*
X1849683Y326232D01*
X1852561Y325168D01*
X1855508Y324297D01*
X1858502Y323629D01*
X1861538Y323164D01*
X1864598Y322905D01*
G37*
G36*
X2221654Y338254D02*
G01*
X2225034Y338305D01*
X2228408Y338561D01*
X2231758Y339023D01*
X2235075Y339691D01*
X2238344Y340558D01*
X2241555Y341622D01*
X2244694Y342882D01*
X2247750Y344330D01*
X2250714Y345960D01*
X2253571Y347769D01*
X2256312Y349747D01*
X2258931Y351891D01*
X2261410Y354190D01*
X2263747Y356636D01*
X2265931Y359219D01*
X2267950Y361932D01*
X2269804Y364761D01*
X2271478Y367700D01*
X2272974Y370733D01*
X2274280Y373852D01*
X2275392Y377047D01*
X2276309Y380304D01*
X2277026Y383608D01*
X2277541Y386951D01*
X2277849Y390319D01*
X2277953Y393700D01*
X2277849Y397080D01*
X2277541Y400448D01*
X2277026Y403791D01*
X2276309Y407095D01*
X2275392Y410352D01*
X2274280Y413547D01*
X2272974Y416666D01*
X2271478Y419699D01*
X2269804Y422638D01*
X2267950Y425467D01*
X2265931Y428180D01*
X2263747Y430763D01*
X2261410Y433209D01*
X2258931Y435508D01*
X2256312Y437652D01*
X2253571Y439630D01*
X2250714Y441439D01*
X2247750Y443069D01*
X2244694Y444517D01*
X2241555Y445777D01*
X2238344Y446841D01*
X2235075Y447708D01*
X2231758Y448376D01*
X2228408Y448838D01*
X2225034Y449094D01*
X2221654Y449145D01*
X2218275Y448993D01*
X2214913Y448632D01*
X2211577Y448066D01*
X2208283Y447299D01*
X2205042Y446333D01*
X2201865Y445170D01*
X2198766Y443816D01*
X2195756Y442277D01*
X2192842Y440557D01*
X2190041Y438663D01*
X2187361Y436600D01*
X2184811Y434378D01*
X2182401Y432003D01*
X2180140Y429488D01*
X2178037Y426839D01*
X2176101Y424068D01*
X2174336Y421182D01*
X2172749Y418195D01*
X2171349Y415117D01*
X2170137Y411957D01*
X2169121Y408731D01*
X2168306Y405450D01*
X2167689Y402125D01*
X2167277Y398767D01*
X2167072Y395391D01*
X2167072Y392008D01*
X2167277Y388632D01*
X2167689Y385274D01*
X2168306Y381949D01*
X2169121Y378668D01*
X2170137Y375442D01*
X2171349Y372282D01*
X2172749Y369204D01*
X2174336Y366217D01*
X2176101Y363331D01*
X2178037Y360560D01*
X2180140Y357911D01*
X2182401Y355396D01*
X2184811Y353021D01*
X2187361Y350799D01*
X2190041Y348736D01*
X2192842Y346842D01*
X2195756Y345122D01*
X2198766Y343583D01*
X2201865Y342229D01*
X2205042Y341066D01*
X2208283Y340100D01*
X2211577Y339333D01*
X2214913Y338767D01*
X2218275Y338406D01*
G37*
G36*
X-11932Y399054D02*
G01*
X-8867Y399209D01*
X-5816Y399569D01*
X-2799Y400138D01*
X172Y400908D01*
X3086Y401876D01*
X5928Y403039D01*
X8684Y404390D01*
X11343Y405927D01*
X13891Y407636D01*
X16319Y409516D01*
X18615Y411556D01*
X19052Y412000D01*
X20614Y410517D01*
X22976Y408556D01*
X25468Y406760D01*
X28072Y405135D01*
X30782Y403692D01*
X33583Y402432D01*
X36461Y401368D01*
X39408Y400497D01*
X42402Y399829D01*
X45438Y399364D01*
X48498Y399105D01*
X51567Y399054D01*
X54632Y399209D01*
X57683Y399569D01*
X60700Y400138D01*
X63672Y400908D01*
X66586Y401876D01*
X69428Y403039D01*
X72184Y404390D01*
X74843Y405927D01*
X77391Y407636D01*
X79819Y409516D01*
X82115Y411556D01*
X84269Y413745D01*
X86268Y416074D01*
X88107Y418533D01*
X89773Y421111D01*
X91264Y423796D01*
X92570Y426575D01*
X93685Y429435D01*
X94604Y432366D01*
X95323Y435350D01*
X95839Y438376D01*
X96149Y441431D01*
X96253Y444500D01*
X96149Y447568D01*
X95839Y450623D01*
X95323Y453649D01*
X94604Y456633D01*
X93685Y459564D01*
X92570Y462424D01*
X91264Y465203D01*
X89773Y467888D01*
X88107Y470466D01*
X86268Y472925D01*
X84269Y475254D01*
X82115Y477443D01*
X79819Y479483D01*
X77391Y481363D01*
X74843Y483072D01*
X72184Y484609D01*
X69428Y485960D01*
X66586Y487123D01*
X63672Y488091D01*
X60700Y488861D01*
X57683Y489430D01*
X54632Y489790D01*
X51567Y489945D01*
X48498Y489894D01*
X45438Y489635D01*
X42402Y489170D01*
X39408Y488502D01*
X36461Y487631D01*
X33583Y486567D01*
X30782Y485307D01*
X28072Y483864D01*
X25468Y482239D01*
X22976Y480443D01*
X20614Y478482D01*
X19052Y476999D01*
X18615Y477443D01*
X16319Y479483D01*
X13891Y481363D01*
X11343Y483072D01*
X8684Y484609D01*
X5928Y485960D01*
X3086Y487123D01*
X172Y488091D01*
X-2799Y488861D01*
X-5816Y489430D01*
X-8867Y489790D01*
X-11932Y489945D01*
X-15001Y489894D01*
X-18061Y489635D01*
X-21097Y489170D01*
X-24091Y488502D01*
X-27038Y487631D01*
X-29916Y486567D01*
X-32717Y485307D01*
X-35427Y483864D01*
X-38031Y482239D01*
X-40523Y480443D01*
X-42885Y478482D01*
X-45110Y476366D01*
X-47188Y474106D01*
X-49108Y471711D01*
X-50860Y469191D01*
X-52440Y466557D01*
X-53840Y463824D01*
X-55051Y461004D01*
X-56067Y458106D01*
X-56888Y455147D01*
X-57505Y452140D01*
X-57919Y449097D01*
X-58127Y446034D01*
X-58127Y442965D01*
X-57919Y439902D01*
X-57505Y436859D01*
X-56888Y433852D01*
X-56067Y430893D01*
X-55051Y427995D01*
X-53840Y425175D01*
X-52440Y422442D01*
X-50860Y419808D01*
X-49108Y417288D01*
X-47188Y414893D01*
X-45110Y412633D01*
X-42885Y410517D01*
X-40523Y408556D01*
X-38031Y406760D01*
X-35427Y405135D01*
X-32717Y403692D01*
X-29916Y402432D01*
X-27038Y401368D01*
X-24091Y400497D01*
X-21097Y399829D01*
X-18061Y399364D01*
X-15001Y399105D01*
G37*
G36*
X686567Y399054D02*
G01*
X689632Y399209D01*
X692683Y399569D01*
X695700Y400138D01*
X698672Y400908D01*
X701586Y401876D01*
X704428Y403039D01*
X707184Y404390D01*
X709843Y405927D01*
X712391Y407636D01*
X714819Y409516D01*
X717115Y411556D01*
X719269Y413745D01*
X721268Y416074D01*
X723107Y418533D01*
X724773Y421111D01*
X726264Y423796D01*
X727570Y426575D01*
X728685Y429435D01*
X729604Y432366D01*
X730323Y435350D01*
X730839Y438376D01*
X731149Y441431D01*
X731253Y444500D01*
X731149Y447568D01*
X730839Y450623D01*
X730323Y453649D01*
X729604Y456633D01*
X728685Y459564D01*
X727570Y462424D01*
X726264Y465203D01*
X724773Y467888D01*
X723107Y470466D01*
X721268Y472925D01*
X719269Y475254D01*
X717115Y477443D01*
X714819Y479483D01*
X712391Y481363D01*
X709843Y483072D01*
X707184Y484609D01*
X704428Y485960D01*
X701586Y487123D01*
X698672Y488091D01*
X695700Y488861D01*
X692683Y489430D01*
X689632Y489790D01*
X686567Y489945D01*
X683498Y489894D01*
X680438Y489635D01*
X677402Y489170D01*
X674408Y488502D01*
X671461Y487631D01*
X668583Y486567D01*
X665782Y485307D01*
X663072Y483864D01*
X660468Y482239D01*
X657976Y480443D01*
X655614Y478482D01*
X653389Y476366D01*
X651311Y474106D01*
X649391Y471711D01*
X647639Y469191D01*
X646059Y466557D01*
X644659Y463824D01*
X643448Y461004D01*
X642432Y458106D01*
X641611Y455147D01*
X640994Y452140D01*
X640580Y449097D01*
X640372Y446034D01*
X640372Y442965D01*
X640580Y439902D01*
X640994Y436859D01*
X641611Y433852D01*
X642432Y430893D01*
X643448Y427995D01*
X644659Y425175D01*
X646059Y422442D01*
X647639Y419808D01*
X649391Y417288D01*
X651311Y414893D01*
X653389Y412633D01*
X655614Y410517D01*
X657976Y408556D01*
X660468Y406760D01*
X663072Y405135D01*
X665782Y403692D01*
X668583Y402432D01*
X671461Y401368D01*
X674408Y400497D01*
X677402Y399829D01*
X680438Y399364D01*
X683498Y399105D01*
G37*
G36*
X203967Y411754D02*
G01*
X207032Y411909D01*
X210083Y412269D01*
X213100Y412838D01*
X216072Y413608D01*
X218986Y414576D01*
X221828Y415739D01*
X224584Y417090D01*
X227243Y418627D01*
X229791Y420336D01*
X232219Y422216D01*
X234515Y424256D01*
X236669Y426445D01*
X238668Y428774D01*
X240507Y431233D01*
X242173Y433811D01*
X243664Y436496D01*
X244970Y439275D01*
X246085Y442135D01*
X247004Y445066D01*
X247723Y448050D01*
X248239Y451076D01*
X248549Y454131D01*
X248653Y457200D01*
X248549Y460268D01*
X248239Y463323D01*
X247723Y466349D01*
X247004Y469333D01*
X246085Y472264D01*
X244970Y475124D01*
X243664Y477903D01*
X242173Y480588D01*
X240507Y483166D01*
X238668Y485625D01*
X236669Y487954D01*
X234515Y490143D01*
X232219Y492183D01*
X229791Y494063D01*
X227243Y495772D01*
X224584Y497309D01*
X221828Y498660D01*
X218986Y499823D01*
X216072Y500791D01*
X213100Y501561D01*
X210083Y502130D01*
X207032Y502490D01*
X203967Y502645D01*
X200898Y502594D01*
X197838Y502335D01*
X194802Y501870D01*
X191808Y501202D01*
X188861Y500331D01*
X185983Y499267D01*
X183182Y498007D01*
X180472Y496564D01*
X177868Y494939D01*
X175376Y493143D01*
X173014Y491182D01*
X170789Y489066D01*
X168711Y486806D01*
X166791Y484411D01*
X165039Y481891D01*
X163459Y479257D01*
X162059Y476524D01*
X160848Y473704D01*
X159832Y470806D01*
X159011Y467847D01*
X158394Y464840D01*
X157980Y461797D01*
X157772Y458734D01*
X157772Y455665D01*
X157980Y452602D01*
X158394Y449559D01*
X159011Y446552D01*
X159832Y443593D01*
X160848Y440695D01*
X162059Y437875D01*
X163459Y435142D01*
X165039Y432508D01*
X166791Y429988D01*
X168711Y427593D01*
X170789Y425333D01*
X173014Y423217D01*
X175376Y421256D01*
X177868Y419460D01*
X180472Y417835D01*
X183182Y416392D01*
X185983Y415132D01*
X188861Y414068D01*
X191808Y413197D01*
X194802Y412529D01*
X197838Y412064D01*
X200898Y411805D01*
G37*
G36*
X2221654Y452554D02*
G01*
X2225034Y452605D01*
X2228408Y452861D01*
X2231758Y453323D01*
X2235075Y453991D01*
X2238344Y454858D01*
X2241555Y455922D01*
X2244694Y457182D01*
X2247750Y458630D01*
X2250714Y460260D01*
X2253571Y462069D01*
X2256312Y464047D01*
X2258931Y466191D01*
X2261410Y468490D01*
X2263747Y470936D01*
X2265931Y473519D01*
X2267950Y476232D01*
X2269804Y479061D01*
X2271478Y482000D01*
X2272974Y485033D01*
X2274280Y488152D01*
X2275392Y491347D01*
X2276309Y494604D01*
X2277026Y497908D01*
X2277541Y501251D01*
X2277849Y504619D01*
X2277953Y508000D01*
X2277849Y511380D01*
X2277541Y514748D01*
X2277026Y518091D01*
X2276309Y521395D01*
X2275392Y524652D01*
X2274280Y527847D01*
X2272974Y530966D01*
X2271478Y533999D01*
X2269804Y536938D01*
X2267950Y539767D01*
X2265931Y542480D01*
X2263747Y545063D01*
X2261410Y547509D01*
X2258931Y549808D01*
X2256312Y551952D01*
X2253571Y553930D01*
X2250714Y555739D01*
X2247750Y557369D01*
X2244694Y558817D01*
X2241555Y560077D01*
X2238344Y561141D01*
X2235075Y562008D01*
X2231758Y562676D01*
X2228408Y563138D01*
X2225034Y563394D01*
X2221654Y563445D01*
X2218275Y563293D01*
X2214913Y562932D01*
X2211577Y562366D01*
X2208283Y561599D01*
X2205042Y560633D01*
X2201865Y559470D01*
X2198766Y558116D01*
X2195756Y556577D01*
X2192842Y554857D01*
X2190041Y552963D01*
X2187361Y550900D01*
X2184811Y548678D01*
X2182401Y546303D01*
X2180140Y543788D01*
X2178037Y541139D01*
X2176101Y538368D01*
X2174336Y535482D01*
X2172749Y532495D01*
X2171349Y529417D01*
X2170137Y526257D01*
X2169121Y523031D01*
X2168306Y519750D01*
X2167689Y516425D01*
X2167277Y513067D01*
X2167072Y509691D01*
X2167072Y506308D01*
X2167277Y502932D01*
X2167689Y499574D01*
X2168306Y496249D01*
X2169121Y492968D01*
X2170137Y489742D01*
X2171349Y486582D01*
X2172749Y483504D01*
X2174336Y480517D01*
X2176101Y477631D01*
X2178037Y474860D01*
X2180140Y472211D01*
X2182401Y469696D01*
X2184811Y467321D01*
X2187361Y465099D01*
X2190041Y463036D01*
X2192842Y461142D01*
X2195756Y459422D01*
X2198766Y457883D01*
X2201865Y456529D01*
X2205042Y455366D01*
X2208283Y454400D01*
X2211577Y453633D01*
X2214913Y453067D01*
X2218275Y452706D01*
G37*
G36*
X1524767Y500654D02*
G01*
X1527832Y500809D01*
X1530883Y501169D01*
X1533900Y501738D01*
X1536872Y502508D01*
X1539786Y503476D01*
X1542628Y504639D01*
X1545384Y505990D01*
X1548043Y507527D01*
X1550591Y509236D01*
X1553019Y511116D01*
X1555315Y513156D01*
X1557469Y515345D01*
X1559468Y517674D01*
X1561307Y520133D01*
X1562973Y522711D01*
X1564464Y525396D01*
X1565770Y528175D01*
X1566885Y531035D01*
X1567804Y533966D01*
X1568523Y536950D01*
X1569039Y539976D01*
X1569349Y543031D01*
X1569453Y546100D01*
X1569349Y549168D01*
X1569039Y552223D01*
X1568523Y555249D01*
X1567804Y558233D01*
X1566885Y561164D01*
X1565770Y564024D01*
X1564464Y566803D01*
X1562973Y569488D01*
X1561307Y572066D01*
X1559468Y574525D01*
X1557469Y576854D01*
X1555315Y579043D01*
X1553019Y581083D01*
X1550591Y582963D01*
X1548043Y584672D01*
X1545384Y586209D01*
X1542628Y587560D01*
X1539786Y588723D01*
X1536872Y589691D01*
X1533900Y590461D01*
X1530883Y591030D01*
X1527832Y591390D01*
X1524767Y591545D01*
X1521698Y591494D01*
X1518638Y591235D01*
X1515602Y590770D01*
X1512608Y590102D01*
X1509661Y589231D01*
X1506783Y588167D01*
X1503982Y586907D01*
X1501272Y585464D01*
X1498668Y583839D01*
X1496176Y582043D01*
X1493814Y580082D01*
X1491589Y577966D01*
X1489511Y575706D01*
X1487591Y573311D01*
X1485839Y570791D01*
X1484259Y568157D01*
X1482859Y565424D01*
X1481648Y562604D01*
X1480632Y559706D01*
X1479811Y556747D01*
X1479194Y553740D01*
X1478780Y550697D01*
X1478572Y547634D01*
X1478572Y544565D01*
X1478780Y541502D01*
X1479194Y538459D01*
X1479811Y535452D01*
X1480632Y532493D01*
X1481648Y529595D01*
X1482859Y526775D01*
X1484259Y524042D01*
X1485839Y521408D01*
X1487591Y518888D01*
X1489511Y516493D01*
X1491589Y514233D01*
X1493814Y512117D01*
X1496176Y510156D01*
X1498668Y508360D01*
X1501272Y506735D01*
X1503982Y505292D01*
X1506783Y504032D01*
X1509661Y502968D01*
X1512608Y502097D01*
X1515602Y501429D01*
X1518638Y500964D01*
X1521698Y500705D01*
G37*
G36*
X203967Y564154D02*
G01*
X207032Y564309D01*
X210083Y564669D01*
X213100Y565238D01*
X216072Y566008D01*
X218986Y566976D01*
X221828Y568139D01*
X224584Y569490D01*
X227243Y571027D01*
X229791Y572736D01*
X232219Y574616D01*
X234515Y576656D01*
X236669Y578845D01*
X238668Y581174D01*
X240507Y583633D01*
X242173Y586211D01*
X243664Y588896D01*
X244970Y591675D01*
X246085Y594535D01*
X247004Y597466D01*
X247723Y600450D01*
X248239Y603476D01*
X248549Y606531D01*
X248653Y609600D01*
X248549Y612668D01*
X248239Y615723D01*
X247723Y618749D01*
X247004Y621733D01*
X246085Y624664D01*
X244970Y627524D01*
X243664Y630303D01*
X242173Y632988D01*
X240507Y635566D01*
X238668Y638025D01*
X236669Y640354D01*
X234515Y642543D01*
X232219Y644583D01*
X229791Y646463D01*
X227243Y648172D01*
X224584Y649709D01*
X221828Y651060D01*
X218986Y652223D01*
X216072Y653191D01*
X213100Y653961D01*
X210083Y654530D01*
X207032Y654890D01*
X203967Y655045D01*
X200898Y654994D01*
X197838Y654735D01*
X194802Y654270D01*
X191808Y653602D01*
X188861Y652731D01*
X185983Y651667D01*
X183182Y650407D01*
X180472Y648964D01*
X177868Y647339D01*
X175376Y645543D01*
X173014Y643582D01*
X170789Y641466D01*
X168711Y639206D01*
X166791Y636811D01*
X165039Y634291D01*
X163459Y631657D01*
X162059Y628924D01*
X160848Y626104D01*
X159832Y623206D01*
X159011Y620247D01*
X158394Y617240D01*
X157980Y614197D01*
X157772Y611134D01*
X157772Y608065D01*
X157980Y605002D01*
X158394Y601959D01*
X159011Y598952D01*
X159832Y595993D01*
X160848Y593095D01*
X162059Y590275D01*
X163459Y587542D01*
X165039Y584908D01*
X166791Y582388D01*
X168711Y579993D01*
X170789Y577733D01*
X173014Y575617D01*
X175376Y573656D01*
X177868Y571860D01*
X180472Y570235D01*
X183182Y568792D01*
X185983Y567532D01*
X188861Y566468D01*
X191808Y565597D01*
X194802Y564929D01*
X197838Y564464D01*
X200898Y564205D01*
G37*
G36*
X1969267Y564154D02*
G01*
X1972332Y564309D01*
X1975383Y564669D01*
X1978400Y565238D01*
X1981372Y566008D01*
X1984286Y566976D01*
X1987128Y568139D01*
X1989884Y569490D01*
X1992543Y571027D01*
X1995091Y572736D01*
X1997519Y574616D01*
X1999815Y576656D01*
X2001969Y578845D01*
X2003968Y581174D01*
X2005807Y583633D01*
X2007473Y586211D01*
X2008964Y588896D01*
X2010270Y591675D01*
X2011385Y594535D01*
X2012304Y597466D01*
X2013023Y600450D01*
X2013539Y603476D01*
X2013849Y606531D01*
X2013953Y609600D01*
X2013849Y612668D01*
X2013539Y615723D01*
X2013023Y618749D01*
X2012304Y621733D01*
X2011385Y624664D01*
X2010270Y627524D01*
X2008964Y630303D01*
X2007473Y632988D01*
X2005807Y635566D01*
X2003968Y638025D01*
X2001969Y640354D01*
X1999815Y642543D01*
X1997519Y644583D01*
X1995091Y646463D01*
X1992543Y648172D01*
X1989884Y649709D01*
X1987128Y651060D01*
X1984286Y652223D01*
X1981372Y653191D01*
X1978400Y653961D01*
X1975383Y654530D01*
X1972332Y654890D01*
X1969267Y655045D01*
X1966198Y654994D01*
X1963138Y654735D01*
X1960102Y654270D01*
X1957108Y653602D01*
X1954161Y652731D01*
X1951283Y651667D01*
X1948482Y650407D01*
X1945772Y648964D01*
X1943168Y647339D01*
X1940676Y645543D01*
X1938314Y643582D01*
X1936089Y641466D01*
X1934011Y639206D01*
X1932091Y636811D01*
X1930339Y634291D01*
X1928759Y631657D01*
X1927359Y628924D01*
X1926148Y626104D01*
X1925132Y623206D01*
X1924311Y620247D01*
X1923694Y617240D01*
X1923280Y614197D01*
X1923072Y611134D01*
X1923072Y608065D01*
X1923280Y605002D01*
X1923694Y601959D01*
X1924311Y598952D01*
X1925132Y595993D01*
X1926148Y593095D01*
X1927359Y590275D01*
X1928759Y587542D01*
X1930339Y584908D01*
X1932091Y582388D01*
X1934011Y579993D01*
X1936089Y577733D01*
X1938314Y575617D01*
X1940676Y573656D01*
X1943168Y571860D01*
X1945772Y570235D01*
X1948482Y568792D01*
X1951283Y567532D01*
X1954161Y566468D01*
X1957108Y565597D01*
X1960102Y564929D01*
X1963138Y564464D01*
X1966198Y564205D01*
G37*
G36*
X2221654Y566854D02*
G01*
X2225034Y566905D01*
X2228408Y567161D01*
X2231758Y567623D01*
X2235075Y568291D01*
X2238344Y569158D01*
X2241555Y570222D01*
X2244694Y571482D01*
X2247750Y572930D01*
X2250714Y574560D01*
X2253571Y576369D01*
X2256312Y578347D01*
X2258931Y580491D01*
X2261410Y582790D01*
X2263747Y585236D01*
X2265931Y587819D01*
X2267950Y590532D01*
X2269804Y593361D01*
X2271478Y596300D01*
X2272974Y599333D01*
X2274280Y602452D01*
X2275392Y605647D01*
X2276309Y608904D01*
X2277026Y612208D01*
X2277541Y615551D01*
X2277849Y618919D01*
X2277953Y622300D01*
X2277849Y625680D01*
X2277541Y629048D01*
X2277026Y632391D01*
X2276309Y635695D01*
X2275392Y638952D01*
X2274280Y642147D01*
X2272974Y645266D01*
X2271478Y648299D01*
X2269804Y651238D01*
X2267950Y654067D01*
X2265931Y656780D01*
X2263747Y659363D01*
X2261410Y661809D01*
X2258931Y664108D01*
X2256312Y666252D01*
X2253571Y668230D01*
X2250714Y670039D01*
X2247750Y671669D01*
X2244694Y673117D01*
X2241555Y674377D01*
X2238344Y675441D01*
X2235075Y676308D01*
X2231758Y676976D01*
X2228408Y677438D01*
X2225034Y677694D01*
X2221654Y677745D01*
X2218275Y677593D01*
X2214913Y677232D01*
X2211577Y676666D01*
X2208283Y675899D01*
X2205042Y674933D01*
X2201865Y673770D01*
X2198766Y672416D01*
X2195756Y670877D01*
X2192842Y669157D01*
X2190041Y667263D01*
X2187361Y665200D01*
X2184811Y662978D01*
X2182401Y660603D01*
X2180140Y658088D01*
X2178037Y655439D01*
X2176101Y652668D01*
X2174336Y649782D01*
X2172749Y646795D01*
X2171349Y643717D01*
X2170137Y640557D01*
X2169121Y637331D01*
X2168306Y634050D01*
X2167689Y630725D01*
X2167277Y627367D01*
X2167072Y623991D01*
X2167072Y620608D01*
X2167277Y617232D01*
X2167689Y613874D01*
X2168306Y610549D01*
X2169121Y607268D01*
X2170137Y604042D01*
X2171349Y600882D01*
X2172749Y597804D01*
X2174336Y594817D01*
X2176101Y591931D01*
X2178037Y589160D01*
X2180140Y586511D01*
X2182401Y583996D01*
X2184811Y581621D01*
X2187361Y579399D01*
X2190041Y577336D01*
X2192842Y575442D01*
X2195756Y573722D01*
X2198766Y572183D01*
X2201865Y570829D01*
X2205042Y569666D01*
X2208283Y568700D01*
X2211577Y567933D01*
X2214913Y567367D01*
X2218275Y567006D01*
G37*
G36*
X953267Y614954D02*
G01*
X956332Y615109D01*
X959383Y615469D01*
X962400Y616038D01*
X965372Y616808D01*
X968286Y617776D01*
X971128Y618939D01*
X973884Y620290D01*
X976543Y621827D01*
X979091Y623536D01*
X981519Y625416D01*
X983815Y627456D01*
X985969Y629645D01*
X987968Y631974D01*
X989807Y634433D01*
X991473Y637011D01*
X992964Y639696D01*
X994270Y642475D01*
X995385Y645335D01*
X996304Y648266D01*
X997023Y651250D01*
X997539Y654276D01*
X997849Y657331D01*
X997953Y660400D01*
X997849Y663468D01*
X997539Y666523D01*
X997023Y669549D01*
X996304Y672533D01*
X995385Y675464D01*
X994270Y678324D01*
X992964Y681103D01*
X991473Y683788D01*
X989807Y686366D01*
X987968Y688825D01*
X985969Y691154D01*
X983815Y693343D01*
X981519Y695383D01*
X979091Y697263D01*
X976543Y698972D01*
X973884Y700509D01*
X971128Y701860D01*
X968286Y703023D01*
X965372Y703991D01*
X962400Y704761D01*
X959383Y705330D01*
X956332Y705690D01*
X953267Y705845D01*
X950198Y705794D01*
X947138Y705535D01*
X944102Y705070D01*
X941108Y704402D01*
X938161Y703531D01*
X935283Y702467D01*
X932482Y701207D01*
X929772Y699764D01*
X927168Y698139D01*
X924676Y696343D01*
X922314Y694382D01*
X920089Y692266D01*
X918011Y690006D01*
X916091Y687611D01*
X914339Y685091D01*
X912759Y682457D01*
X911359Y679724D01*
X910148Y676904D01*
X909132Y674006D01*
X908311Y671047D01*
X907694Y668040D01*
X907280Y664997D01*
X907072Y661934D01*
X907072Y658865D01*
X907280Y655802D01*
X907694Y652759D01*
X908311Y649752D01*
X909132Y646793D01*
X910148Y643895D01*
X911359Y641075D01*
X912759Y638342D01*
X914339Y635708D01*
X916091Y633188D01*
X918011Y630793D01*
X920089Y628533D01*
X922314Y626417D01*
X924676Y624456D01*
X927168Y622660D01*
X929772Y621035D01*
X932482Y619592D01*
X935283Y618332D01*
X938161Y617268D01*
X941108Y616397D01*
X944102Y615729D01*
X947138Y615264D01*
X950198Y615005D01*
G37*

%LPD*%
D10*
G01*
X2222500Y622300D03*
G01*
X2222500Y508000D03*
G01*
X2222500Y-406400D03*
G01*
X2222500Y-292100D03*
G01*
X2222500Y-177800D03*
G01*
X2222500Y-63500D03*
G01*
X2222500Y50800D03*
G01*
X2222500Y165100D03*
G01*
X2222500Y279400D03*
G01*
X2222500Y393700D03*
D11*
G01*
X876300Y76200D03*
G01*
X558800Y-241300D03*
G01*
X571500Y-368300D03*
G01*
X876300Y-88900D03*
G01*
X736600Y-228600D03*
G01*
X1282700Y-114300D03*
G01*
X1320800Y101600D03*
G01*
X1930400Y-368300D03*
G01*
X2070100Y-165100D03*
G01*
X1731492Y-3886D03*
G01*
X1866900Y368300D03*
G01*
X1968500Y609600D03*
G01*
X1524000Y546100D03*
G01*
X952500Y660400D03*
G01*
X685800Y444500D03*
G01*
X203200Y609600D03*
G01*
X203200Y457200D03*
G01*
X203200Y342900D03*
G01*
X203200Y-50800D03*
G01*
X203200Y-165100D03*
G01*
X203200Y-292100D03*
G01*
X939800Y-406400D03*
G01*
X1282700Y-368300D03*
G01*
X1016000Y101600D03*
G01*
X1181100Y101600D03*
G01*
X1168400Y355600D03*
G01*
X832205Y-368300D03*
G01*
X850900Y355600D03*
G01*
X203200Y25400D03*
G01*
X495300Y228600D03*
G01*
X520141Y368858D03*
G01*
X596087Y100787D03*
G01*
X1358900Y-431800D03*
G01*
X647700Y520700D03*
G01*
X1193800Y660400D03*
G01*
X1549400Y-25400D03*
G01*
X1728393Y501091D03*
G01*
X939800Y355600D03*
G01*
X215900Y190500D03*
G01*
X215900Y114300D03*
G01*
X127000Y-266700D03*
G01*
X127000Y-342900D03*
G01*
X1473200Y-292100D03*
G01*
X2628900Y-355600D03*
G01*
X1574800Y-431800D03*
G01*
X50800Y444500D03*
G01*
X-12700Y444500D03*
G01*
X101600Y368300D03*
G01*
X101600Y294208D03*
G01*
X0Y0D03*
G01*
X-38100Y114300D03*
M02*
