G04 Layer: BottomSolderMaskLayer*
G04 EasyEDA v6.5.46, 2025-02-01 21:24:59*
G04 3faa27f7c1044bbbb46ecef337df57e6,286660f9466f4c8aba87c6f7285b94de,10*
G04 Gerber Generator version 0.2*
G04 Scale: 100 percent, Rotated: No, Reflected: No *
G04 Dimensions in millimeters *
G04 leading zeros omitted , absolute positions ,4 integer and 5 decimal *
%FSLAX45Y45*%
%MOMM*%

%AMMACRO1*4,1,8,-0.4161,-0.3208,-0.4458,-0.291,-0.4458,0.2911,-0.4161,0.3208,0.4161,0.3208,0.4458,0.2911,0.4458,-0.291,0.4161,-0.3208,-0.4161,-0.3208,0*%
%AMMACRO2*4,1,8,-0.2911,-0.4458,-0.3208,-0.4161,-0.3208,0.4161,-0.2911,0.4458,0.291,0.4458,0.3208,0.4161,0.3208,-0.4161,0.291,-0.4458,-0.2911,-0.4458,0*%
%AMMACRO3*4,1,8,-0.5207,-0.35,-0.55,-0.3207,-0.55,0.3207,-0.5207,0.35,0.5207,0.35,0.55,0.3207,0.55,-0.3207,0.5207,-0.35,-0.5207,-0.35,0*%
%AMMACRO4*4,1,8,0.5208,-0.3501,-0.5208,-0.35,-0.5501,-0.3207,-0.55,0.3207,-0.5207,0.35,0.5207,0.3501,0.55,0.3207,0.5501,-0.3207,0.5208,-0.3501,0*%
%AMMACRO5*4,1,8,-0.5207,-0.35,-0.55,-0.3207,-0.55,0.3208,-0.5207,0.35,0.5207,0.35,0.55,0.3208,0.55,-0.3207,0.5207,-0.35,-0.5207,-0.35,0*%
%AMMACRO6*4,1,8,-0.5207,-0.35,-0.55,-0.3207,-0.55,0.3207,-0.5207,0.35,0.5207,0.35,0.55,0.3207,0.55,-0.3206,0.5207,-0.3499,-0.5207,-0.35,0*%
%AMMACRO7*4,1,8,-0.5208,-0.3501,-0.55,-0.3207,-0.55,0.3207,-0.5208,0.3501,0.5207,0.35,0.55,0.3207,0.55,-0.3207,0.5207,-0.35,-0.5208,-0.3501,0*%
%AMMACRO8*4,1,8,-0.3039,-0.3208,-0.3336,-0.291,-0.3336,0.2911,-0.3039,0.3208,0.3038,0.3208,0.3336,0.2911,0.3336,-0.291,0.3038,-0.3208,-0.3039,-0.3208,0*%
%ADD10MACRO1*%
%ADD11MACRO2*%
%ADD12MACRO3*%
%ADD13MACRO4*%
%ADD14MACRO5*%
%ADD15MACRO6*%
%ADD16MACRO7*%
%ADD17O,2.3516082000000003X0.7315962*%
%ADD18MACRO8*%

%LPD*%
G36*
X-1276350Y-68579D02*
G01*
X-1276847Y-68554D01*
X-1277340Y-68483D01*
X-1277825Y-68361D01*
X-1278293Y-68193D01*
X-1278745Y-67980D01*
X-1279171Y-67724D01*
X-1279573Y-67426D01*
X-1279941Y-67091D01*
X-1280276Y-66723D01*
X-1280574Y-66321D01*
X-1280830Y-65895D01*
X-1281043Y-65443D01*
X-1281211Y-64975D01*
X-1281333Y-64490D01*
X-1281404Y-63997D01*
X-1281429Y-63500D01*
X-1281429Y63500D01*
X-1281404Y63997D01*
X-1281333Y64490D01*
X-1281211Y64975D01*
X-1281043Y65443D01*
X-1280830Y65895D01*
X-1280574Y66321D01*
X-1280276Y66723D01*
X-1279941Y67091D01*
X-1279573Y67426D01*
X-1279171Y67724D01*
X-1278745Y67980D01*
X-1278293Y68193D01*
X-1277825Y68361D01*
X-1277340Y68483D01*
X-1276847Y68554D01*
X-1276350Y68579D01*
X-69850Y68579D01*
X-69352Y68554D01*
X-68859Y68483D01*
X-68374Y68361D01*
X-67906Y68193D01*
X-67454Y67980D01*
X-67028Y67724D01*
X-66626Y67426D01*
X-66258Y67091D01*
X-65923Y66723D01*
X-65625Y66321D01*
X-65369Y65895D01*
X-65156Y65443D01*
X-64988Y64975D01*
X-64866Y64490D01*
X-64795Y63997D01*
X-64770Y63500D01*
X-64770Y-63500D01*
X-64795Y-63997D01*
X-64866Y-64490D01*
X-64988Y-64975D01*
X-65156Y-65443D01*
X-65369Y-65895D01*
X-65625Y-66321D01*
X-65923Y-66723D01*
X-66258Y-67091D01*
X-66626Y-67426D01*
X-67028Y-67724D01*
X-67454Y-67980D01*
X-67906Y-68193D01*
X-68374Y-68361D01*
X-68859Y-68483D01*
X-69352Y-68554D01*
X-69850Y-68579D01*
G37*
G36*
X-1276350Y147320D02*
G01*
X-1276847Y147345D01*
X-1277340Y147416D01*
X-1277825Y147538D01*
X-1278293Y147706D01*
X-1278745Y147919D01*
X-1279171Y148175D01*
X-1279573Y148473D01*
X-1279941Y148808D01*
X-1280276Y149176D01*
X-1280574Y149578D01*
X-1280830Y150004D01*
X-1281043Y150456D01*
X-1281211Y150924D01*
X-1281333Y151409D01*
X-1281404Y151902D01*
X-1281429Y152400D01*
X-1281429Y279400D01*
X-1281404Y279897D01*
X-1281333Y280390D01*
X-1281211Y280875D01*
X-1281043Y281343D01*
X-1280830Y281795D01*
X-1280574Y282221D01*
X-1280276Y282623D01*
X-1279941Y282991D01*
X-1279573Y283326D01*
X-1279171Y283624D01*
X-1278745Y283880D01*
X-1278293Y284093D01*
X-1277825Y284261D01*
X-1277340Y284383D01*
X-1276847Y284454D01*
X-1276350Y284479D01*
X-69850Y284479D01*
X-69352Y284454D01*
X-68859Y284383D01*
X-68374Y284261D01*
X-67906Y284093D01*
X-67454Y283880D01*
X-67028Y283624D01*
X-66626Y283326D01*
X-66258Y282991D01*
X-65923Y282623D01*
X-65625Y282221D01*
X-65369Y281795D01*
X-65156Y281343D01*
X-64988Y280875D01*
X-64866Y280390D01*
X-64795Y279897D01*
X-64770Y279400D01*
X-64770Y152400D01*
X-64795Y151902D01*
X-64866Y151409D01*
X-64988Y150924D01*
X-65156Y150456D01*
X-65369Y150004D01*
X-65625Y149578D01*
X-65923Y149176D01*
X-66258Y148808D01*
X-66626Y148473D01*
X-67028Y148175D01*
X-67454Y147919D01*
X-67906Y147706D01*
X-68374Y147538D01*
X-68859Y147416D01*
X-69352Y147345D01*
X-69850Y147320D01*
G37*
G36*
X-1339850Y420370D02*
G01*
X-1340347Y420395D01*
X-1340840Y420466D01*
X-1341325Y420588D01*
X-1341793Y420756D01*
X-1342245Y420969D01*
X-1342671Y421225D01*
X-1343073Y421523D01*
X-1343441Y421858D01*
X-1343776Y422226D01*
X-1344074Y422628D01*
X-1344330Y423054D01*
X-1344543Y423506D01*
X-1344711Y423974D01*
X-1344833Y424459D01*
X-1344904Y424952D01*
X-1344929Y425450D01*
X-1344929Y552450D01*
X-1344904Y552947D01*
X-1344833Y553440D01*
X-1344711Y553925D01*
X-1344543Y554393D01*
X-1344330Y554845D01*
X-1344074Y555271D01*
X-1343776Y555673D01*
X-1343441Y556041D01*
X-1343073Y556376D01*
X-1342671Y556674D01*
X-1342245Y556930D01*
X-1341793Y557143D01*
X-1341325Y557311D01*
X-1340840Y557433D01*
X-1340347Y557504D01*
X-1339850Y557529D01*
X-69850Y557529D01*
X-69352Y557504D01*
X-68859Y557433D01*
X-68374Y557311D01*
X-67906Y557143D01*
X-67454Y556930D01*
X-67028Y556674D01*
X-66626Y556376D01*
X-66258Y556041D01*
X-65923Y555673D01*
X-65625Y555271D01*
X-65369Y554845D01*
X-65156Y554393D01*
X-64988Y553925D01*
X-64866Y553440D01*
X-64795Y552947D01*
X-64770Y552450D01*
X-64770Y425450D01*
X-64795Y424952D01*
X-64866Y424459D01*
X-64988Y423974D01*
X-65156Y423506D01*
X-65369Y423054D01*
X-65625Y422628D01*
X-65923Y422226D01*
X-66258Y421858D01*
X-66626Y421523D01*
X-67028Y421225D01*
X-67454Y420969D01*
X-67906Y420756D01*
X-68374Y420588D01*
X-68859Y420466D01*
X-69352Y420395D01*
X-69850Y420370D01*
G37*
G36*
X-1339850Y-341629D02*
G01*
X-1340347Y-341604D01*
X-1340840Y-341533D01*
X-1341325Y-341411D01*
X-1341793Y-341243D01*
X-1342245Y-341030D01*
X-1342671Y-340774D01*
X-1343073Y-340476D01*
X-1343441Y-340141D01*
X-1343776Y-339773D01*
X-1344074Y-339371D01*
X-1344330Y-338945D01*
X-1344543Y-338493D01*
X-1344711Y-338025D01*
X-1344833Y-337540D01*
X-1344904Y-337047D01*
X-1344929Y-336550D01*
X-1344929Y-209550D01*
X-1344904Y-209052D01*
X-1344833Y-208559D01*
X-1344711Y-208074D01*
X-1344543Y-207606D01*
X-1344330Y-207154D01*
X-1344074Y-206728D01*
X-1343776Y-206326D01*
X-1343441Y-205958D01*
X-1343073Y-205623D01*
X-1342671Y-205325D01*
X-1342245Y-205069D01*
X-1341793Y-204856D01*
X-1341325Y-204688D01*
X-1340840Y-204566D01*
X-1340347Y-204495D01*
X-1339850Y-204470D01*
X-69850Y-204470D01*
X-69352Y-204495D01*
X-68859Y-204566D01*
X-68374Y-204688D01*
X-67906Y-204856D01*
X-67454Y-205069D01*
X-67028Y-205325D01*
X-66626Y-205623D01*
X-66258Y-205958D01*
X-65923Y-206326D01*
X-65625Y-206728D01*
X-65369Y-207154D01*
X-65156Y-207606D01*
X-64988Y-208074D01*
X-64866Y-208559D01*
X-64795Y-209052D01*
X-64770Y-209550D01*
X-64770Y-336550D01*
X-64795Y-337047D01*
X-64866Y-337540D01*
X-64988Y-338025D01*
X-65156Y-338493D01*
X-65369Y-338945D01*
X-65625Y-339371D01*
X-65923Y-339773D01*
X-66258Y-340141D01*
X-66626Y-340476D01*
X-67028Y-340774D01*
X-67454Y-341030D01*
X-67906Y-341243D01*
X-68374Y-341411D01*
X-68859Y-341533D01*
X-69352Y-341604D01*
X-69850Y-341629D01*
G37*
D10*
G01*
X1431396Y482597D03*
G01*
X1540408Y482597D03*
G01*
X1431396Y609597D03*
G01*
X1540408Y609597D03*
G01*
X1431396Y355597D03*
G01*
X1540408Y355597D03*
G01*
X880005Y584200D03*
G01*
X770994Y584200D03*
G01*
X880005Y457200D03*
G01*
X770994Y457200D03*
D11*
G01*
X406400Y257705D03*
G01*
X406400Y148694D03*
D12*
G01*
X1278408Y495300D03*
D13*
G01*
X1278409Y400310D03*
D14*
G01*
X1278404Y590290D03*
D15*
G01*
X1058393Y400296D03*
D16*
G01*
X1058395Y590302D03*
D17*
G01*
X1115009Y12700D03*
G01*
X1115009Y-114300D03*
G01*
X1115009Y-241300D03*
G01*
X1115009Y-368300D03*
G01*
X408990Y12700D03*
G01*
X408990Y-114300D03*
G01*
X408990Y-241300D03*
G01*
X408990Y-368300D03*
D10*
G01*
X1710794Y152400D03*
G01*
X1819805Y152400D03*
D18*
G01*
X1440282Y12700D03*
G01*
X1353717Y12700D03*
M02*
