G04 Layer: TopSolderMaskLayer*
G04 EasyEDA v6.5.46, 2025-02-01 21:24:59*
G04 3faa27f7c1044bbbb46ecef337df57e6,286660f9466f4c8aba87c6f7285b94de,10*
G04 Gerber Generator version 0.2*
G04 Scale: 100 percent, Rotated: No, Reflected: No *
G04 Dimensions in millimeters *
G04 leading zeros omitted , absolute positions ,4 integer and 5 decimal *
%FSLAX45Y45*%
%MOMM*%

%AMMACRO1*4,1,8,-0.3039,-0.3208,-0.3336,-0.291,-0.3336,0.2911,-0.3039,0.3208,0.3038,0.3208,0.3336,0.2911,0.3336,-0.291,0.3038,-0.3208,-0.3039,-0.3208,0*%
%AMMACRO2*4,1,8,-0.2911,-0.4458,-0.3208,-0.4161,-0.3208,0.4161,-0.2911,0.4458,0.291,0.4458,0.3208,0.4161,0.3208,-0.4161,0.291,-0.4458,-0.2911,-0.4458,0*%
%AMMACRO3*4,1,8,-0.4161,-0.3208,-0.4458,-0.291,-0.4458,0.2911,-0.4161,0.3208,0.4161,0.3208,0.4458,0.2911,0.4458,-0.291,0.4161,-0.3208,-0.4161,-0.3208,0*%
%AMMACRO4*4,1,8,-0.4207,-0.375,-0.45,-0.3457,-0.45,0.3457,-0.4207,0.375,0.4207,0.375,0.45,0.3457,0.45,-0.3457,0.4207,-0.375,-0.4207,-0.375,0*%
%AMMACRO5*4,1,8,-0.1207,-0.6,-0.15,-0.5707,-0.15,0.5707,-0.1207,0.6,0.1207,0.6,0.15,0.5707,0.15,-0.5707,0.1207,-0.6,-0.1207,-0.6,0*%
%AMMACRO6*4,1,8,-0.5707,-0.15,-0.6,-0.1207,-0.6,0.1207,-0.5707,0.15,0.5707,0.15,0.6,0.1207,0.6,-0.1207,0.5707,-0.15,-0.5707,-0.15,0*%
%AMMACRO7*4,1,8,-1.5707,-1.6,-1.6,-1.5707,-1.6,1.5707,-1.5707,1.6,1.5707,1.6,1.6,1.5707,1.6,-1.5707,1.5707,-1.6,-1.5707,-1.6,0*%
%AMMACRO8*4,1,8,-0.7211,-0.6508,-0.7508,-0.621,-0.7508,0.6211,-0.7211,0.6508,0.721,0.6508,0.7508,0.6211,0.7508,-0.621,0.721,-0.6508,-0.7211,-0.6508,0*%
%ADD10MACRO1*%
%ADD11MACRO2*%
%ADD12MACRO3*%
%ADD13MACRO4*%
%ADD14MACRO5*%
%ADD15MACRO6*%
%ADD16MACRO7*%
%ADD17MACRO8*%
%ADD18C,0.0194*%

%LPD*%
G36*
X-1346200Y414020D02*
G01*
X-1346697Y414045D01*
X-1347190Y414116D01*
X-1347675Y414238D01*
X-1348143Y414406D01*
X-1348595Y414619D01*
X-1349021Y414875D01*
X-1349423Y415173D01*
X-1349791Y415508D01*
X-1350126Y415876D01*
X-1350424Y416278D01*
X-1350680Y416704D01*
X-1350893Y417156D01*
X-1351061Y417624D01*
X-1351183Y418109D01*
X-1351254Y418602D01*
X-1351279Y419100D01*
X-1351279Y546100D01*
X-1351254Y546597D01*
X-1351183Y547090D01*
X-1351061Y547575D01*
X-1350893Y548043D01*
X-1350680Y548495D01*
X-1350424Y548921D01*
X-1350126Y549323D01*
X-1349791Y549691D01*
X-1349423Y550026D01*
X-1349021Y550324D01*
X-1348595Y550580D01*
X-1348143Y550793D01*
X-1347675Y550961D01*
X-1347190Y551083D01*
X-1346697Y551154D01*
X-1346200Y551179D01*
X-76200Y551179D01*
X-75702Y551154D01*
X-75209Y551083D01*
X-74724Y550961D01*
X-74256Y550793D01*
X-73804Y550580D01*
X-73378Y550324D01*
X-72976Y550026D01*
X-72608Y549691D01*
X-72273Y549323D01*
X-71975Y548921D01*
X-71719Y548495D01*
X-71506Y548043D01*
X-71338Y547575D01*
X-71216Y547090D01*
X-71145Y546597D01*
X-71120Y546100D01*
X-71120Y419100D01*
X-71145Y418602D01*
X-71216Y418109D01*
X-71338Y417624D01*
X-71506Y417156D01*
X-71719Y416704D01*
X-71975Y416278D01*
X-72273Y415876D01*
X-72608Y415508D01*
X-72976Y415173D01*
X-73378Y414875D01*
X-73804Y414619D01*
X-74256Y414406D01*
X-74724Y414238D01*
X-75209Y414116D01*
X-75702Y414045D01*
X-76200Y414020D01*
G37*
G36*
X-1276350Y147320D02*
G01*
X-1276847Y147345D01*
X-1277340Y147416D01*
X-1277825Y147538D01*
X-1278293Y147706D01*
X-1278745Y147919D01*
X-1279171Y148175D01*
X-1279573Y148473D01*
X-1279941Y148808D01*
X-1280276Y149176D01*
X-1280574Y149578D01*
X-1280830Y150004D01*
X-1281043Y150456D01*
X-1281211Y150924D01*
X-1281333Y151409D01*
X-1281404Y151902D01*
X-1281429Y152400D01*
X-1281429Y279400D01*
X-1281404Y279897D01*
X-1281333Y280390D01*
X-1281211Y280875D01*
X-1281043Y281343D01*
X-1280830Y281795D01*
X-1280574Y282221D01*
X-1280276Y282623D01*
X-1279941Y282991D01*
X-1279573Y283326D01*
X-1279171Y283624D01*
X-1278745Y283880D01*
X-1278293Y284093D01*
X-1277825Y284261D01*
X-1277340Y284383D01*
X-1276847Y284454D01*
X-1276350Y284479D01*
X-69850Y284479D01*
X-69352Y284454D01*
X-68859Y284383D01*
X-68374Y284261D01*
X-67906Y284093D01*
X-67454Y283880D01*
X-67028Y283624D01*
X-66626Y283326D01*
X-66258Y282991D01*
X-65923Y282623D01*
X-65625Y282221D01*
X-65369Y281795D01*
X-65156Y281343D01*
X-64988Y280875D01*
X-64866Y280390D01*
X-64795Y279897D01*
X-64770Y279400D01*
X-64770Y152400D01*
X-64795Y151902D01*
X-64866Y151409D01*
X-64988Y150924D01*
X-65156Y150456D01*
X-65369Y150004D01*
X-65625Y149578D01*
X-65923Y149176D01*
X-66258Y148808D01*
X-66626Y148473D01*
X-67028Y148175D01*
X-67454Y147919D01*
X-67906Y147706D01*
X-68374Y147538D01*
X-68859Y147416D01*
X-69352Y147345D01*
X-69850Y147320D01*
G37*
G36*
X-1276350Y-68579D02*
G01*
X-1276847Y-68554D01*
X-1277340Y-68483D01*
X-1277825Y-68361D01*
X-1278293Y-68193D01*
X-1278745Y-67980D01*
X-1279171Y-67724D01*
X-1279573Y-67426D01*
X-1279941Y-67091D01*
X-1280276Y-66723D01*
X-1280574Y-66321D01*
X-1280830Y-65895D01*
X-1281043Y-65443D01*
X-1281211Y-64975D01*
X-1281333Y-64490D01*
X-1281404Y-63997D01*
X-1281429Y-63500D01*
X-1281429Y63500D01*
X-1281404Y63997D01*
X-1281333Y64490D01*
X-1281211Y64975D01*
X-1281043Y65443D01*
X-1280830Y65895D01*
X-1280574Y66321D01*
X-1280276Y66723D01*
X-1279941Y67091D01*
X-1279573Y67426D01*
X-1279171Y67724D01*
X-1278745Y67980D01*
X-1278293Y68193D01*
X-1277825Y68361D01*
X-1277340Y68483D01*
X-1276847Y68554D01*
X-1276350Y68579D01*
X-69850Y68579D01*
X-69352Y68554D01*
X-68859Y68483D01*
X-68374Y68361D01*
X-67906Y68193D01*
X-67454Y67980D01*
X-67028Y67724D01*
X-66626Y67426D01*
X-66258Y67091D01*
X-65923Y66723D01*
X-65625Y66321D01*
X-65369Y65895D01*
X-65156Y65443D01*
X-64988Y64975D01*
X-64866Y64490D01*
X-64795Y63997D01*
X-64770Y63500D01*
X-64770Y-63500D01*
X-64795Y-63997D01*
X-64866Y-64490D01*
X-64988Y-64975D01*
X-65156Y-65443D01*
X-65369Y-65895D01*
X-65625Y-66321D01*
X-65923Y-66723D01*
X-66258Y-67091D01*
X-66626Y-67426D01*
X-67028Y-67724D01*
X-67454Y-67980D01*
X-67906Y-68193D01*
X-68374Y-68361D01*
X-68859Y-68483D01*
X-69352Y-68554D01*
X-69850Y-68579D01*
G37*
G36*
X-1346200Y-347979D02*
G01*
X-1346697Y-347954D01*
X-1347190Y-347883D01*
X-1347675Y-347761D01*
X-1348143Y-347593D01*
X-1348595Y-347380D01*
X-1349021Y-347124D01*
X-1349423Y-346826D01*
X-1349791Y-346491D01*
X-1350126Y-346123D01*
X-1350424Y-345721D01*
X-1350680Y-345295D01*
X-1350893Y-344843D01*
X-1351061Y-344375D01*
X-1351183Y-343890D01*
X-1351254Y-343397D01*
X-1351279Y-342900D01*
X-1351279Y-215900D01*
X-1351254Y-215402D01*
X-1351183Y-214909D01*
X-1351061Y-214424D01*
X-1350893Y-213956D01*
X-1350680Y-213504D01*
X-1350424Y-213078D01*
X-1350126Y-212676D01*
X-1349791Y-212308D01*
X-1349423Y-211973D01*
X-1349021Y-211675D01*
X-1348595Y-211419D01*
X-1348143Y-211206D01*
X-1347675Y-211038D01*
X-1347190Y-210916D01*
X-1346697Y-210845D01*
X-1346200Y-210820D01*
X-76200Y-210820D01*
X-75702Y-210845D01*
X-75209Y-210916D01*
X-74724Y-211038D01*
X-74256Y-211206D01*
X-73804Y-211419D01*
X-73378Y-211675D01*
X-72976Y-211973D01*
X-72608Y-212308D01*
X-72273Y-212676D01*
X-71975Y-213078D01*
X-71719Y-213504D01*
X-71506Y-213956D01*
X-71338Y-214424D01*
X-71216Y-214909D01*
X-71145Y-215402D01*
X-71120Y-215900D01*
X-71120Y-342900D01*
X-71145Y-343397D01*
X-71216Y-343890D01*
X-71338Y-344375D01*
X-71506Y-344843D01*
X-71719Y-345295D01*
X-71975Y-345721D01*
X-72273Y-346123D01*
X-72608Y-346491D01*
X-72976Y-346826D01*
X-73378Y-347124D01*
X-73804Y-347380D01*
X-74256Y-347593D01*
X-74724Y-347761D01*
X-75209Y-347883D01*
X-75702Y-347954D01*
X-76200Y-347979D01*
G37*
D10*
G01*
X1480717Y-368300D03*
G01*
X1567282Y-368300D03*
D11*
G01*
X1600200Y212194D03*
G01*
X1600200Y321205D03*
G01*
X1600200Y491594D03*
G01*
X1600200Y600605D03*
D12*
G01*
X397405Y-165100D03*
G01*
X288394Y-165100D03*
G01*
X397405Y-38100D03*
G01*
X288394Y-38100D03*
G01*
X1197505Y596900D03*
G01*
X1088494Y596900D03*
G01*
X834494Y596900D03*
G01*
X943505Y596900D03*
G01*
X1146705Y-406400D03*
G01*
X1037694Y-406400D03*
G01*
X397405Y342900D03*
G01*
X288394Y342900D03*
G01*
X397405Y469900D03*
G01*
X288394Y469900D03*
G01*
X397405Y-292100D03*
G01*
X288394Y-292100D03*
D11*
G01*
X1727200Y321205D03*
G01*
X1727200Y212194D03*
D12*
G01*
X288394Y596900D03*
G01*
X397405Y596900D03*
G01*
X1736194Y-368300D03*
G01*
X1845205Y-368300D03*
G01*
X1984905Y292100D03*
G01*
X1875894Y292100D03*
D13*
G01*
X1728398Y591107D03*
G01*
X1728398Y501092D03*
G01*
X1878401Y501092D03*
G01*
X1878401Y591107D03*
D10*
G01*
X678282Y596900D03*
G01*
X591717Y596900D03*
G01*
X299617Y215900D03*
G01*
X386182Y215900D03*
G01*
X299617Y88900D03*
G01*
X386182Y88900D03*
G01*
X1887117Y165100D03*
G01*
X1973682Y165100D03*
D14*
G01*
X832192Y-253409D03*
G01*
X872197Y-253409D03*
G01*
X912202Y-253409D03*
G01*
X952207Y-253409D03*
G01*
X992187Y-253409D03*
G01*
X1032192Y-253409D03*
G01*
X1072197Y-253409D03*
G01*
X1112202Y-253409D03*
G01*
X1152207Y-253409D03*
G01*
X1192187Y-253409D03*
G01*
X1232192Y-253409D03*
G01*
X1272197Y-253409D03*
G01*
X1312202Y-253409D03*
G01*
X1352207Y-253409D03*
D15*
G01*
X1447195Y-158394D03*
G01*
X1447195Y-118414D03*
G01*
X1447195Y-78409D03*
G01*
X1447195Y-38404D03*
G01*
X1447195Y1600D03*
G01*
X1447195Y41605D03*
G01*
X1447195Y81584D03*
G01*
X1447195Y121589D03*
G01*
X1447195Y161594D03*
G01*
X1447195Y201599D03*
G01*
X1447195Y241604D03*
G01*
X1447195Y281584D03*
G01*
X1447195Y321589D03*
G01*
X1447195Y361594D03*
D14*
G01*
X1352207Y456608D03*
G01*
X1312202Y456608D03*
G01*
X1272197Y456608D03*
G01*
X1232192Y456608D03*
G01*
X1192187Y456608D03*
G01*
X1152207Y456608D03*
G01*
X1112202Y456608D03*
G01*
X1072197Y456608D03*
G01*
X1032192Y456608D03*
G01*
X992187Y456608D03*
G01*
X952207Y456608D03*
G01*
X912202Y456608D03*
G01*
X872197Y456608D03*
G01*
X832192Y456608D03*
D15*
G01*
X737204Y361594D03*
G01*
X737204Y321589D03*
G01*
X737204Y281584D03*
G01*
X737204Y241604D03*
G01*
X737204Y201599D03*
G01*
X737204Y161594D03*
G01*
X737204Y121589D03*
G01*
X737204Y81584D03*
G01*
X737204Y41605D03*
G01*
X737204Y1600D03*
G01*
X737204Y-38404D03*
G01*
X737204Y-78409D03*
G01*
X737204Y-118414D03*
G01*
X737204Y-158394D03*
D16*
G01*
X1092194Y101594D03*
D17*
G01*
X1731500Y-173888D03*
G01*
X1951499Y-173888D03*
G01*
X1951499Y-3886D03*
G01*
X1731500Y-3886D03*
D10*
G01*
X2545182Y-355600D03*
G01*
X2458617Y-355600D03*
M02*
